<?xml version="1.0" encoding="utf-8"?>
<svg xmlns="http://www.w3.org/2000/svg" xmlns:xlink="http://www.w3.org/1999/xlink" width="600" height="400" viewBox="0 0 2400 1600">
<defs>
  <clipPath id="clip760">
    <rect x="0" y="0" width="2400" height="1600"/>
  </clipPath>
</defs>
<path clip-path="url(#clip760)" d="M0 1600 L2400 1600 L2400 8.88178e-14 L0 8.88178e-14  Z" fill="#ffffff" fill-rule="evenodd" fill-opacity="1"/>
<defs>
  <clipPath id="clip761">
    <rect x="480" y="0" width="1681" height="1600"/>
  </clipPath>
</defs>
<path clip-path="url(#clip760)" d="M186.274 1486.45 L2352.76 1486.45 L2352.76 123.472 L186.274 123.472  Z" fill="#ffffff" fill-rule="evenodd" fill-opacity="1"/>
<defs>
  <clipPath id="clip762">
    <rect x="186" y="123" width="2167" height="1364"/>
  </clipPath>
</defs>
<polyline clip-path="url(#clip762)" style="stroke:#000000; stroke-linecap:round; stroke-linejoin:round; stroke-width:2; stroke-opacity:0.1; fill:none" points="247.59,1486.45 247.59,123.472 "/>
<polyline clip-path="url(#clip762)" style="stroke:#000000; stroke-linecap:round; stroke-linejoin:round; stroke-width:2; stroke-opacity:0.1; fill:none" points="673.392,1486.45 673.392,123.472 "/>
<polyline clip-path="url(#clip762)" style="stroke:#000000; stroke-linecap:round; stroke-linejoin:round; stroke-width:2; stroke-opacity:0.1; fill:none" points="1099.19,1486.45 1099.19,123.472 "/>
<polyline clip-path="url(#clip762)" style="stroke:#000000; stroke-linecap:round; stroke-linejoin:round; stroke-width:2; stroke-opacity:0.1; fill:none" points="1525,1486.45 1525,123.472 "/>
<polyline clip-path="url(#clip762)" style="stroke:#000000; stroke-linecap:round; stroke-linejoin:round; stroke-width:2; stroke-opacity:0.1; fill:none" points="1950.8,1486.45 1950.8,123.472 "/>
<polyline clip-path="url(#clip762)" style="stroke:#000000; stroke-linecap:round; stroke-linejoin:round; stroke-width:2; stroke-opacity:0.1; fill:none" points="186.274,1447.87 2352.76,1447.87 "/>
<polyline clip-path="url(#clip762)" style="stroke:#000000; stroke-linecap:round; stroke-linejoin:round; stroke-width:2; stroke-opacity:0.1; fill:none" points="186.274,1155.64 2352.76,1155.64 "/>
<polyline clip-path="url(#clip762)" style="stroke:#000000; stroke-linecap:round; stroke-linejoin:round; stroke-width:2; stroke-opacity:0.1; fill:none" points="186.274,863.407 2352.76,863.407 "/>
<polyline clip-path="url(#clip762)" style="stroke:#000000; stroke-linecap:round; stroke-linejoin:round; stroke-width:2; stroke-opacity:0.1; fill:none" points="186.274,571.173 2352.76,571.173 "/>
<polyline clip-path="url(#clip762)" style="stroke:#000000; stroke-linecap:round; stroke-linejoin:round; stroke-width:2; stroke-opacity:0.1; fill:none" points="186.274,278.94 2352.76,278.94 "/>
<polyline clip-path="url(#clip760)" style="stroke:#000000; stroke-linecap:round; stroke-linejoin:round; stroke-width:4; stroke-opacity:1; fill:none" points="186.274,1486.45 2352.76,1486.45 "/>
<polyline clip-path="url(#clip760)" style="stroke:#000000; stroke-linecap:round; stroke-linejoin:round; stroke-width:4; stroke-opacity:1; fill:none" points="247.59,1486.45 247.59,1467.55 "/>
<polyline clip-path="url(#clip760)" style="stroke:#000000; stroke-linecap:round; stroke-linejoin:round; stroke-width:4; stroke-opacity:1; fill:none" points="673.392,1486.45 673.392,1467.55 "/>
<polyline clip-path="url(#clip760)" style="stroke:#000000; stroke-linecap:round; stroke-linejoin:round; stroke-width:4; stroke-opacity:1; fill:none" points="1099.19,1486.45 1099.19,1467.55 "/>
<polyline clip-path="url(#clip760)" style="stroke:#000000; stroke-linecap:round; stroke-linejoin:round; stroke-width:4; stroke-opacity:1; fill:none" points="1525,1486.45 1525,1467.55 "/>
<polyline clip-path="url(#clip760)" style="stroke:#000000; stroke-linecap:round; stroke-linejoin:round; stroke-width:4; stroke-opacity:1; fill:none" points="1950.8,1486.45 1950.8,1467.55 "/>
<path clip-path="url(#clip760)" d="M247.59 1517.37 Q243.978 1517.37 242.15 1520.93 Q240.344 1524.47 240.344 1531.6 Q240.344 1538.71 242.15 1542.27 Q243.978 1545.82 247.59 1545.82 Q251.224 1545.82 253.029 1542.27 Q254.858 1538.71 254.858 1531.6 Q254.858 1524.47 253.029 1520.93 Q251.224 1517.37 247.59 1517.37 M247.59 1513.66 Q253.4 1513.66 256.455 1518.27 Q259.534 1522.85 259.534 1531.6 Q259.534 1540.33 256.455 1544.94 Q253.4 1549.52 247.59 1549.52 Q241.779 1549.52 238.701 1544.94 Q235.645 1540.33 235.645 1531.6 Q235.645 1522.85 238.701 1518.27 Q241.779 1513.66 247.59 1513.66 Z" fill="#000000" fill-rule="nonzero" fill-opacity="1" /><path clip-path="url(#clip760)" d="M663.67 1514.29 L682.026 1514.29 L682.026 1518.22 L667.952 1518.22 L667.952 1526.7 Q668.971 1526.35 669.989 1526.19 Q671.008 1526 672.026 1526 Q677.813 1526 681.193 1529.17 Q684.572 1532.34 684.572 1537.76 Q684.572 1543.34 681.1 1546.44 Q677.628 1549.52 671.308 1549.52 Q669.133 1549.52 666.864 1549.15 Q664.619 1548.78 662.211 1548.04 L662.211 1543.34 Q664.295 1544.47 666.517 1545.03 Q668.739 1545.58 671.216 1545.58 Q675.22 1545.58 677.558 1543.48 Q679.896 1541.37 679.896 1537.76 Q679.896 1534.15 677.558 1532.04 Q675.22 1529.94 671.216 1529.94 Q669.341 1529.94 667.466 1530.35 Q665.614 1530.77 663.67 1531.65 L663.67 1514.29 Z" fill="#000000" fill-rule="nonzero" fill-opacity="1" /><path clip-path="url(#clip760)" d="M1073.88 1544.91 L1081.52 1544.91 L1081.52 1518.55 L1073.21 1520.21 L1073.21 1515.95 L1081.47 1514.29 L1086.15 1514.29 L1086.15 1544.91 L1093.79 1544.91 L1093.79 1548.85 L1073.88 1548.85 L1073.88 1544.91 Z" fill="#000000" fill-rule="nonzero" fill-opacity="1" /><path clip-path="url(#clip760)" d="M1113.23 1517.37 Q1109.62 1517.37 1107.79 1520.93 Q1105.99 1524.47 1105.99 1531.6 Q1105.99 1538.71 1107.79 1542.27 Q1109.62 1545.82 1113.23 1545.82 Q1116.87 1545.82 1118.67 1542.27 Q1120.5 1538.71 1120.5 1531.6 Q1120.5 1524.47 1118.67 1520.93 Q1116.87 1517.37 1113.23 1517.37 M1113.23 1513.66 Q1119.04 1513.66 1122.1 1518.27 Q1125.18 1522.85 1125.18 1531.6 Q1125.18 1540.33 1122.1 1544.94 Q1119.04 1549.52 1113.23 1549.52 Q1107.42 1549.52 1104.34 1544.94 Q1101.29 1540.33 1101.29 1531.6 Q1101.29 1522.85 1104.34 1518.27 Q1107.42 1513.66 1113.23 1513.66 Z" fill="#000000" fill-rule="nonzero" fill-opacity="1" /><path clip-path="url(#clip760)" d="M1500.18 1544.91 L1507.82 1544.91 L1507.82 1518.55 L1499.51 1520.21 L1499.51 1515.95 L1507.77 1514.29 L1512.45 1514.29 L1512.45 1544.91 L1520.09 1544.91 L1520.09 1548.85 L1500.18 1548.85 L1500.18 1544.91 Z" fill="#000000" fill-rule="nonzero" fill-opacity="1" /><path clip-path="url(#clip760)" d="M1529.58 1514.29 L1547.94 1514.29 L1547.94 1518.22 L1533.86 1518.22 L1533.86 1526.7 Q1534.88 1526.35 1535.9 1526.19 Q1536.92 1526 1537.94 1526 Q1543.72 1526 1547.1 1529.17 Q1550.48 1532.34 1550.48 1537.76 Q1550.48 1543.34 1547.01 1546.44 Q1543.54 1549.52 1537.22 1549.52 Q1535.04 1549.52 1532.77 1549.15 Q1530.53 1548.78 1528.12 1548.04 L1528.12 1543.34 Q1530.2 1544.47 1532.43 1545.03 Q1534.65 1545.58 1537.13 1545.58 Q1541.13 1545.58 1543.47 1543.48 Q1545.81 1541.37 1545.81 1537.76 Q1545.81 1534.15 1543.47 1532.04 Q1541.13 1529.94 1537.13 1529.94 Q1535.25 1529.94 1533.38 1530.35 Q1531.52 1530.77 1529.58 1531.65 L1529.58 1514.29 Z" fill="#000000" fill-rule="nonzero" fill-opacity="1" /><path clip-path="url(#clip760)" d="M1929.57 1544.91 L1945.89 1544.91 L1945.89 1548.85 L1923.95 1548.85 L1923.95 1544.91 Q1926.61 1542.16 1931.19 1537.53 Q1935.8 1532.88 1936.98 1531.53 Q1939.22 1529.01 1940.1 1527.27 Q1941.01 1525.51 1941.01 1523.82 Q1941.01 1521.07 1939.06 1519.33 Q1937.14 1517.6 1934.04 1517.6 Q1931.84 1517.6 1929.39 1518.36 Q1926.96 1519.13 1924.18 1520.68 L1924.18 1515.95 Q1927 1514.82 1929.46 1514.24 Q1931.91 1513.66 1933.95 1513.66 Q1939.32 1513.66 1942.51 1516.35 Q1945.71 1519.03 1945.71 1523.52 Q1945.71 1525.65 1944.9 1527.57 Q1944.11 1529.47 1942 1532.07 Q1941.42 1532.74 1938.32 1535.95 Q1935.22 1539.15 1929.57 1544.91 Z" fill="#000000" fill-rule="nonzero" fill-opacity="1" /><path clip-path="url(#clip760)" d="M1965.71 1517.37 Q1962.09 1517.37 1960.27 1520.93 Q1958.46 1524.47 1958.46 1531.6 Q1958.46 1538.71 1960.27 1542.27 Q1962.09 1545.82 1965.71 1545.82 Q1969.34 1545.82 1971.15 1542.27 Q1972.97 1538.71 1972.97 1531.6 Q1972.97 1524.47 1971.15 1520.93 Q1969.34 1517.37 1965.71 1517.37 M1965.71 1513.66 Q1971.52 1513.66 1974.57 1518.27 Q1977.65 1522.85 1977.65 1531.6 Q1977.65 1540.33 1974.57 1544.94 Q1971.52 1549.52 1965.71 1549.52 Q1959.9 1549.52 1956.82 1544.94 Q1953.76 1540.33 1953.76 1531.6 Q1953.76 1522.85 1956.82 1518.27 Q1959.9 1513.66 1965.71 1513.66 Z" fill="#000000" fill-rule="nonzero" fill-opacity="1" /><polyline clip-path="url(#clip760)" style="stroke:#000000; stroke-linecap:round; stroke-linejoin:round; stroke-width:4; stroke-opacity:1; fill:none" points="186.274,1486.45 186.274,123.472 "/>
<polyline clip-path="url(#clip760)" style="stroke:#000000; stroke-linecap:round; stroke-linejoin:round; stroke-width:4; stroke-opacity:1; fill:none" points="186.274,1447.87 205.172,1447.87 "/>
<polyline clip-path="url(#clip760)" style="stroke:#000000; stroke-linecap:round; stroke-linejoin:round; stroke-width:4; stroke-opacity:1; fill:none" points="186.274,1155.64 205.172,1155.64 "/>
<polyline clip-path="url(#clip760)" style="stroke:#000000; stroke-linecap:round; stroke-linejoin:round; stroke-width:4; stroke-opacity:1; fill:none" points="186.274,863.407 205.172,863.407 "/>
<polyline clip-path="url(#clip760)" style="stroke:#000000; stroke-linecap:round; stroke-linejoin:round; stroke-width:4; stroke-opacity:1; fill:none" points="186.274,571.173 205.172,571.173 "/>
<polyline clip-path="url(#clip760)" style="stroke:#000000; stroke-linecap:round; stroke-linejoin:round; stroke-width:4; stroke-opacity:1; fill:none" points="186.274,278.94 205.172,278.94 "/>
<path clip-path="url(#clip760)" d="M62.9365 1433.67 Q59.3254 1433.67 57.4967 1437.24 Q55.6912 1440.78 55.6912 1447.91 Q55.6912 1455.01 57.4967 1458.58 Q59.3254 1462.12 62.9365 1462.12 Q66.5707 1462.12 68.3763 1458.58 Q70.205 1455.01 70.205 1447.91 Q70.205 1440.78 68.3763 1437.24 Q66.5707 1433.67 62.9365 1433.67 M62.9365 1429.97 Q68.7467 1429.97 71.8022 1434.57 Q74.8809 1439.16 74.8809 1447.91 Q74.8809 1456.63 71.8022 1461.24 Q68.7467 1465.82 62.9365 1465.82 Q57.1264 1465.82 54.0477 1461.24 Q50.9921 1456.63 50.9921 1447.91 Q50.9921 1439.16 54.0477 1434.57 Q57.1264 1429.97 62.9365 1429.97 Z" fill="#000000" fill-rule="nonzero" fill-opacity="1" /><path clip-path="url(#clip760)" d="M83.0984 1459.27 L87.9827 1459.27 L87.9827 1465.15 L83.0984 1465.15 L83.0984 1459.27 Z" fill="#000000" fill-rule="nonzero" fill-opacity="1" /><path clip-path="url(#clip760)" d="M108.168 1433.67 Q104.557 1433.67 102.728 1437.24 Q100.922 1440.78 100.922 1447.91 Q100.922 1455.01 102.728 1458.58 Q104.557 1462.12 108.168 1462.12 Q111.802 1462.12 113.608 1458.58 Q115.436 1455.01 115.436 1447.91 Q115.436 1440.78 113.608 1437.24 Q111.802 1433.67 108.168 1433.67 M108.168 1429.97 Q113.978 1429.97 117.033 1434.57 Q120.112 1439.16 120.112 1447.91 Q120.112 1456.63 117.033 1461.24 Q113.978 1465.82 108.168 1465.82 Q102.358 1465.82 99.2789 1461.24 Q96.2234 1456.63 96.2234 1447.91 Q96.2234 1439.16 99.2789 1434.57 Q102.358 1429.97 108.168 1429.97 Z" fill="#000000" fill-rule="nonzero" fill-opacity="1" /><path clip-path="url(#clip760)" d="M138.33 1433.67 Q134.719 1433.67 132.89 1437.24 Q131.084 1440.78 131.084 1447.91 Q131.084 1455.01 132.89 1458.58 Q134.719 1462.12 138.33 1462.12 Q141.964 1462.12 143.769 1458.58 Q145.598 1455.01 145.598 1447.91 Q145.598 1440.78 143.769 1437.24 Q141.964 1433.67 138.33 1433.67 M138.33 1429.97 Q144.14 1429.97 147.195 1434.57 Q150.274 1439.16 150.274 1447.91 Q150.274 1456.63 147.195 1461.24 Q144.14 1465.82 138.33 1465.82 Q132.519 1465.82 129.441 1461.24 Q126.385 1456.63 126.385 1447.91 Q126.385 1439.16 129.441 1434.57 Q132.519 1429.97 138.33 1429.97 Z" fill="#000000" fill-rule="nonzero" fill-opacity="1" /><path clip-path="url(#clip760)" d="M63.9319 1141.44 Q60.3208 1141.44 58.4921 1145 Q56.6865 1148.54 56.6865 1155.67 Q56.6865 1162.78 58.4921 1166.35 Q60.3208 1169.89 63.9319 1169.89 Q67.5661 1169.89 69.3717 1166.35 Q71.2004 1162.78 71.2004 1155.67 Q71.2004 1148.54 69.3717 1145 Q67.5661 1141.44 63.9319 1141.44 M63.9319 1137.73 Q69.742 1137.73 72.7976 1142.34 Q75.8763 1146.92 75.8763 1155.67 Q75.8763 1164.4 72.7976 1169.01 Q69.742 1173.59 63.9319 1173.59 Q58.1217 1173.59 55.043 1169.01 Q51.9875 1164.4 51.9875 1155.67 Q51.9875 1146.92 55.043 1142.34 Q58.1217 1137.73 63.9319 1137.73 Z" fill="#000000" fill-rule="nonzero" fill-opacity="1" /><path clip-path="url(#clip760)" d="M84.0938 1167.04 L88.978 1167.04 L88.978 1172.92 L84.0938 1172.92 L84.0938 1167.04 Z" fill="#000000" fill-rule="nonzero" fill-opacity="1" /><path clip-path="url(#clip760)" d="M103.191 1168.98 L119.51 1168.98 L119.51 1172.92 L97.566 1172.92 L97.566 1168.98 Q100.228 1166.23 104.811 1161.6 Q109.418 1156.95 110.598 1155.61 Q112.844 1153.08 113.723 1151.35 Q114.626 1149.59 114.626 1147.9 Q114.626 1145.14 112.682 1143.41 Q110.76 1141.67 107.658 1141.67 Q105.459 1141.67 103.006 1142.43 Q100.575 1143.2 97.7974 1144.75 L97.7974 1140.03 Q100.621 1138.89 103.075 1138.31 Q105.529 1137.73 107.566 1137.73 Q112.936 1137.73 116.131 1140.42 Q119.325 1143.11 119.325 1147.6 Q119.325 1149.73 118.515 1151.65 Q117.728 1153.54 115.621 1156.14 Q115.043 1156.81 111.941 1160.03 Q108.839 1163.22 103.191 1168.98 Z" fill="#000000" fill-rule="nonzero" fill-opacity="1" /><path clip-path="url(#clip760)" d="M129.371 1138.36 L147.728 1138.36 L147.728 1142.3 L133.654 1142.3 L133.654 1150.77 Q134.672 1150.42 135.691 1150.26 Q136.709 1150.07 137.728 1150.07 Q143.515 1150.07 146.894 1153.24 Q150.274 1156.42 150.274 1161.83 Q150.274 1167.41 146.802 1170.51 Q143.33 1173.59 137.01 1173.59 Q134.834 1173.59 132.566 1173.22 Q130.32 1172.85 127.913 1172.11 L127.913 1167.41 Q129.996 1168.54 132.219 1169.1 Q134.441 1169.66 136.918 1169.66 Q140.922 1169.66 143.26 1167.55 Q145.598 1165.44 145.598 1161.83 Q145.598 1158.22 143.26 1156.11 Q140.922 1154.01 136.918 1154.01 Q135.043 1154.01 133.168 1154.42 Q131.316 1154.84 129.371 1155.72 L129.371 1138.36 Z" fill="#000000" fill-rule="nonzero" fill-opacity="1" /><path clip-path="url(#clip760)" d="M62.9365 849.205 Q59.3254 849.205 57.4967 852.77 Q55.6912 856.312 55.6912 863.441 Q55.6912 870.548 57.4967 874.113 Q59.3254 877.654 62.9365 877.654 Q66.5707 877.654 68.3763 874.113 Q70.205 870.548 70.205 863.441 Q70.205 856.312 68.3763 852.77 Q66.5707 849.205 62.9365 849.205 M62.9365 845.502 Q68.7467 845.502 71.8022 850.108 Q74.8809 854.691 74.8809 863.441 Q74.8809 872.168 71.8022 876.775 Q68.7467 881.358 62.9365 881.358 Q57.1264 881.358 54.0477 876.775 Q50.9921 872.168 50.9921 863.441 Q50.9921 854.691 54.0477 850.108 Q57.1264 845.502 62.9365 845.502 Z" fill="#000000" fill-rule="nonzero" fill-opacity="1" /><path clip-path="url(#clip760)" d="M83.0984 874.807 L87.9827 874.807 L87.9827 880.687 L83.0984 880.687 L83.0984 874.807 Z" fill="#000000" fill-rule="nonzero" fill-opacity="1" /><path clip-path="url(#clip760)" d="M98.2141 846.127 L116.57 846.127 L116.57 850.062 L102.496 850.062 L102.496 858.534 Q103.515 858.187 104.534 858.025 Q105.552 857.84 106.571 857.84 Q112.358 857.84 115.737 861.011 Q119.117 864.182 119.117 869.599 Q119.117 875.177 115.645 878.279 Q112.172 881.358 105.853 881.358 Q103.677 881.358 101.409 880.988 Q99.1632 880.617 96.7558 879.876 L96.7558 875.177 Q98.8391 876.312 101.061 876.867 Q103.284 877.423 105.76 877.423 Q109.765 877.423 112.103 875.316 Q114.441 873.21 114.441 869.599 Q114.441 865.988 112.103 863.881 Q109.765 861.775 105.76 861.775 Q103.885 861.775 102.01 862.191 Q100.159 862.608 98.2141 863.488 L98.2141 846.127 Z" fill="#000000" fill-rule="nonzero" fill-opacity="1" /><path clip-path="url(#clip760)" d="M138.33 849.205 Q134.719 849.205 132.89 852.77 Q131.084 856.312 131.084 863.441 Q131.084 870.548 132.89 874.113 Q134.719 877.654 138.33 877.654 Q141.964 877.654 143.769 874.113 Q145.598 870.548 145.598 863.441 Q145.598 856.312 143.769 852.77 Q141.964 849.205 138.33 849.205 M138.33 845.502 Q144.14 845.502 147.195 850.108 Q150.274 854.691 150.274 863.441 Q150.274 872.168 147.195 876.775 Q144.14 881.358 138.33 881.358 Q132.519 881.358 129.441 876.775 Q126.385 872.168 126.385 863.441 Q126.385 854.691 129.441 850.108 Q132.519 845.502 138.33 845.502 Z" fill="#000000" fill-rule="nonzero" fill-opacity="1" /><path clip-path="url(#clip760)" d="M63.9319 556.972 Q60.3208 556.972 58.4921 560.537 Q56.6865 564.079 56.6865 571.208 Q56.6865 578.315 58.4921 581.879 Q60.3208 585.421 63.9319 585.421 Q67.5661 585.421 69.3717 581.879 Q71.2004 578.315 71.2004 571.208 Q71.2004 564.079 69.3717 560.537 Q67.5661 556.972 63.9319 556.972 M63.9319 553.268 Q69.742 553.268 72.7976 557.875 Q75.8763 562.458 75.8763 571.208 Q75.8763 579.935 72.7976 584.541 Q69.742 589.125 63.9319 589.125 Q58.1217 589.125 55.043 584.541 Q51.9875 579.935 51.9875 571.208 Q51.9875 562.458 55.043 557.875 Q58.1217 553.268 63.9319 553.268 Z" fill="#000000" fill-rule="nonzero" fill-opacity="1" /><path clip-path="url(#clip760)" d="M84.0938 582.574 L88.978 582.574 L88.978 588.453 L84.0938 588.453 L84.0938 582.574 Z" fill="#000000" fill-rule="nonzero" fill-opacity="1" /><path clip-path="url(#clip760)" d="M97.9826 553.893 L120.205 553.893 L120.205 555.884 L107.658 588.453 L102.774 588.453 L114.58 557.829 L97.9826 557.829 L97.9826 553.893 Z" fill="#000000" fill-rule="nonzero" fill-opacity="1" /><path clip-path="url(#clip760)" d="M129.371 553.893 L147.728 553.893 L147.728 557.829 L133.654 557.829 L133.654 566.301 Q134.672 565.954 135.691 565.792 Q136.709 565.606 137.728 565.606 Q143.515 565.606 146.894 568.778 Q150.274 571.949 150.274 577.366 Q150.274 582.944 146.802 586.046 Q143.33 589.125 137.01 589.125 Q134.834 589.125 132.566 588.754 Q130.32 588.384 127.913 587.643 L127.913 582.944 Q129.996 584.078 132.219 584.634 Q134.441 585.19 136.918 585.19 Q140.922 585.19 143.26 583.083 Q145.598 580.977 145.598 577.366 Q145.598 573.754 143.26 571.648 Q140.922 569.541 136.918 569.541 Q135.043 569.541 133.168 569.958 Q131.316 570.375 129.371 571.254 L129.371 553.893 Z" fill="#000000" fill-rule="nonzero" fill-opacity="1" /><path clip-path="url(#clip760)" d="M53.7467 292.285 L61.3856 292.285 L61.3856 265.919 L53.0754 267.586 L53.0754 263.327 L61.3393 261.66 L66.0152 261.66 L66.0152 292.285 L73.654 292.285 L73.654 296.22 L53.7467 296.22 L53.7467 292.285 Z" fill="#000000" fill-rule="nonzero" fill-opacity="1" /><path clip-path="url(#clip760)" d="M83.0984 290.341 L87.9827 290.341 L87.9827 296.22 L83.0984 296.22 L83.0984 290.341 Z" fill="#000000" fill-rule="nonzero" fill-opacity="1" /><path clip-path="url(#clip760)" d="M108.168 264.739 Q104.557 264.739 102.728 268.304 Q100.922 271.845 100.922 278.975 Q100.922 286.081 102.728 289.646 Q104.557 293.188 108.168 293.188 Q111.802 293.188 113.608 289.646 Q115.436 286.081 115.436 278.975 Q115.436 271.845 113.608 268.304 Q111.802 264.739 108.168 264.739 M108.168 261.035 Q113.978 261.035 117.033 265.642 Q120.112 270.225 120.112 278.975 Q120.112 287.702 117.033 292.308 Q113.978 296.891 108.168 296.891 Q102.358 296.891 99.2789 292.308 Q96.2234 287.702 96.2234 278.975 Q96.2234 270.225 99.2789 265.642 Q102.358 261.035 108.168 261.035 Z" fill="#000000" fill-rule="nonzero" fill-opacity="1" /><path clip-path="url(#clip760)" d="M138.33 264.739 Q134.719 264.739 132.89 268.304 Q131.084 271.845 131.084 278.975 Q131.084 286.081 132.89 289.646 Q134.719 293.188 138.33 293.188 Q141.964 293.188 143.769 289.646 Q145.598 286.081 145.598 278.975 Q145.598 271.845 143.769 268.304 Q141.964 264.739 138.33 264.739 M138.33 261.035 Q144.14 261.035 147.195 265.642 Q150.274 270.225 150.274 278.975 Q150.274 287.702 147.195 292.308 Q144.14 296.891 138.33 296.891 Q132.519 296.891 129.441 292.308 Q126.385 287.702 126.385 278.975 Q126.385 270.225 129.441 265.642 Q132.519 261.035 138.33 261.035 Z" fill="#000000" fill-rule="nonzero" fill-opacity="1" /><path clip-path="url(#clip760)" d="M987.592 14.0809 L987.592 22.0612 Q982.934 19.8332 978.802 18.7395 Q974.67 17.6457 970.822 17.6457 Q964.138 17.6457 960.492 20.2383 Q956.886 22.8309 956.886 27.611 Q956.886 31.6214 959.276 33.6873 Q961.707 35.7128 968.431 36.9686 L973.374 37.9813 Q982.529 39.7232 986.863 44.1387 Q991.238 48.5136 991.238 55.8863 Q991.238 64.6767 985.324 69.2137 Q979.45 73.7508 968.067 73.7508 Q963.773 73.7508 958.912 72.7785 Q954.091 71.8063 948.906 69.9024 L948.906 61.4765 Q953.889 64.2716 958.669 65.6895 Q963.449 67.1073 968.067 67.1073 Q975.075 67.1073 978.883 64.3527 Q982.691 61.598 982.691 56.4939 Q982.691 52.0379 979.936 49.5264 Q977.222 47.0148 970.984 45.759 L966.001 44.7868 Q956.846 42.9639 952.754 39.075 Q948.663 35.1862 948.663 28.2591 Q948.663 20.2383 954.294 15.6203 Q959.965 11.0023 969.89 11.0023 Q974.143 11.0023 978.559 11.7719 Q982.974 12.5416 987.592 14.0809 Z" fill="#000000" fill-rule="nonzero" fill-opacity="1" /><path clip-path="url(#clip760)" d="M1011.05 14.324 L1011.05 27.2059 L1026.4 27.2059 L1026.4 32.9987 L1011.05 32.9987 L1011.05 57.6282 Q1011.05 63.1779 1012.55 64.7578 Q1014.09 66.3376 1018.74 66.3376 L1026.4 66.3376 L1026.4 72.576 L1018.74 72.576 Q1010.12 72.576 1006.83 69.3758 Q1003.55 66.1351 1003.55 57.6282 L1003.55 32.9987 L998.084 32.9987 L998.084 27.2059 L1003.55 27.2059 L1003.55 14.324 L1011.05 14.324 Z" fill="#000000" fill-rule="nonzero" fill-opacity="1" /><path clip-path="url(#clip760)" d="M1056.82 49.7694 Q1047.79 49.7694 1044.3 51.8354 Q1040.82 53.9013 1040.82 58.8839 Q1040.82 62.8538 1043.41 65.2034 Q1046.05 67.5124 1050.54 67.5124 Q1056.74 67.5124 1060.47 63.1374 Q1064.24 58.7219 1064.24 51.4303 L1064.24 49.7694 L1056.82 49.7694 M1071.69 46.6907 L1071.69 72.576 L1064.24 72.576 L1064.24 65.6895 Q1061.68 69.8214 1057.88 71.8063 Q1054.07 73.7508 1048.56 73.7508 Q1041.59 73.7508 1037.46 69.8619 Q1033.37 65.9325 1033.37 59.3701 Q1033.37 51.7138 1038.47 47.825 Q1043.62 43.9361 1053.78 43.9361 L1064.24 43.9361 L1064.24 43.2069 Q1064.24 38.0623 1060.83 35.2672 Q1057.47 32.4315 1051.35 32.4315 Q1047.46 32.4315 1043.78 33.3632 Q1040.09 34.295 1036.69 36.1584 L1036.69 29.2718 Q1040.78 27.692 1044.63 26.9223 Q1048.48 26.1121 1052.12 26.1121 Q1061.97 26.1121 1066.83 31.2163 Q1071.69 36.3204 1071.69 46.6907 Z" fill="#000000" fill-rule="nonzero" fill-opacity="1" /><path clip-path="url(#clip760)" d="M1094.41 14.324 L1094.41 27.2059 L1109.77 27.2059 L1109.77 32.9987 L1094.41 32.9987 L1094.41 57.6282 Q1094.41 63.1779 1095.91 64.7578 Q1097.45 66.3376 1102.11 66.3376 L1109.77 66.3376 L1109.77 72.576 L1102.11 72.576 Q1093.48 72.576 1090.2 69.3758 Q1086.92 66.1351 1086.92 57.6282 L1086.92 32.9987 L1081.45 32.9987 L1081.45 27.2059 L1086.92 27.2059 L1086.92 14.324 L1094.41 14.324 Z" fill="#000000" fill-rule="nonzero" fill-opacity="1" /><path clip-path="url(#clip760)" d="M1158.38 48.0275 L1158.38 51.6733 L1124.11 51.6733 Q1124.59 59.3701 1128.73 63.421 Q1132.9 67.4314 1140.31 67.4314 Q1144.61 67.4314 1148.62 66.3781 Q1152.67 65.3249 1156.64 63.2184 L1156.64 70.267 Q1152.63 71.9684 1148.41 72.8596 Q1144.2 73.7508 1139.87 73.7508 Q1129.01 73.7508 1122.65 67.4314 Q1116.33 61.1119 1116.33 50.3365 Q1116.33 39.1965 1122.33 32.6746 Q1128.36 26.1121 1138.57 26.1121 Q1147.72 26.1121 1153.03 32.0264 Q1158.38 37.9003 1158.38 48.0275 M1150.92 45.84 Q1150.84 39.7232 1147.48 36.0774 Q1144.16 32.4315 1138.65 32.4315 Q1132.41 32.4315 1128.64 35.9558 Q1124.92 39.4801 1124.35 45.8805 L1150.92 45.84 Z" fill="#000000" fill-rule="nonzero" fill-opacity="1" /><path clip-path="url(#clip760)" d="M1204.36 14.324 L1204.36 27.2059 L1219.71 27.2059 L1219.71 32.9987 L1204.36 32.9987 L1204.36 57.6282 Q1204.36 63.1779 1205.85 64.7578 Q1207.39 66.3376 1212.05 66.3376 L1219.71 66.3376 L1219.71 72.576 L1212.05 72.576 Q1203.42 72.576 1200.14 69.3758 Q1196.86 66.1351 1196.86 57.6282 L1196.86 32.9987 L1191.39 32.9987 L1191.39 27.2059 L1196.86 27.2059 L1196.86 14.324 L1204.36 14.324 Z" fill="#000000" fill-rule="nonzero" fill-opacity="1" /><path clip-path="url(#clip760)" d="M1255.8 34.1734 Q1254.55 33.4443 1253.05 33.1202 Q1251.59 32.7556 1249.81 32.7556 Q1243.49 32.7556 1240.09 36.8875 Q1236.72 40.9789 1236.72 48.6757 L1236.72 72.576 L1229.23 72.576 L1229.23 27.2059 L1236.72 27.2059 L1236.72 34.2544 Q1239.07 30.1225 1242.84 28.1376 Q1246.61 26.1121 1251.99 26.1121 Q1252.76 26.1121 1253.7 26.2337 Q1254.63 26.3147 1255.76 26.5172 L1255.8 34.1734 Z" fill="#000000" fill-rule="nonzero" fill-opacity="1" /><path clip-path="url(#clip760)" d="M1284.24 49.7694 Q1275.21 49.7694 1271.72 51.8354 Q1268.24 53.9013 1268.24 58.8839 Q1268.24 62.8538 1270.83 65.2034 Q1273.46 67.5124 1277.96 67.5124 Q1284.16 67.5124 1287.89 63.1374 Q1291.65 58.7219 1291.65 51.4303 L1291.65 49.7694 L1284.24 49.7694 M1299.11 46.6907 L1299.11 72.576 L1291.65 72.576 L1291.65 65.6895 Q1289.1 69.8214 1285.29 71.8063 Q1281.49 73.7508 1275.98 73.7508 Q1269.01 73.7508 1264.88 69.8619 Q1260.79 65.9325 1260.79 59.3701 Q1260.79 51.7138 1265.89 47.825 Q1271.03 43.9361 1281.2 43.9361 L1291.65 43.9361 L1291.65 43.2069 Q1291.65 38.0623 1288.25 35.2672 Q1284.89 32.4315 1278.77 32.4315 Q1274.88 32.4315 1271.2 33.3632 Q1267.51 34.295 1264.11 36.1584 L1264.11 29.2718 Q1268.2 27.692 1272.05 26.9223 Q1275.9 26.1121 1279.54 26.1121 Q1289.38 26.1121 1294.25 31.2163 Q1299.11 36.3204 1299.11 46.6907 Z" fill="#000000" fill-rule="nonzero" fill-opacity="1" /><path clip-path="url(#clip760)" d="M1314.46 27.2059 L1321.91 27.2059 L1321.91 73.3862 Q1321.91 82.0551 1318.59 85.944 Q1315.31 89.8329 1307.98 89.8329 L1305.14 89.8329 L1305.14 83.5134 L1307.13 83.5134 Q1311.38 83.5134 1312.92 81.5285 Q1314.46 79.5841 1314.46 73.3862 L1314.46 27.2059 M1314.46 9.54393 L1321.91 9.54393 L1321.91 18.9825 L1314.46 18.9825 L1314.46 9.54393 Z" fill="#000000" fill-rule="nonzero" fill-opacity="1" /><path clip-path="url(#clip760)" d="M1376.32 48.0275 L1376.32 51.6733 L1342.05 51.6733 Q1342.53 59.3701 1346.66 63.421 Q1350.84 67.4314 1358.25 67.4314 Q1362.54 67.4314 1366.55 66.3781 Q1370.61 65.3249 1374.58 63.2184 L1374.58 70.267 Q1370.56 71.9684 1366.35 72.8596 Q1362.14 73.7508 1357.8 73.7508 Q1346.95 73.7508 1340.59 67.4314 Q1334.27 61.1119 1334.27 50.3365 Q1334.27 39.1965 1340.26 32.6746 Q1346.3 26.1121 1356.51 26.1121 Q1365.66 26.1121 1370.97 32.0264 Q1376.32 37.9003 1376.32 48.0275 M1368.86 45.84 Q1368.78 39.7232 1365.42 36.0774 Q1362.1 32.4315 1356.59 32.4315 Q1350.35 32.4315 1346.58 35.9558 Q1342.86 39.4801 1342.29 45.8805 L1368.86 45.84 Z" fill="#000000" fill-rule="nonzero" fill-opacity="1" /><path clip-path="url(#clip760)" d="M1421.2 28.9478 L1421.2 35.9153 Q1418.04 34.1734 1414.84 33.3227 Q1411.68 32.4315 1408.44 32.4315 Q1401.19 32.4315 1397.18 37.0496 Q1393.17 41.6271 1393.17 49.9314 Q1393.17 58.2358 1397.18 62.8538 Q1401.19 67.4314 1408.44 67.4314 Q1411.68 67.4314 1414.84 66.5807 Q1418.04 65.6895 1421.2 63.9476 L1421.2 70.8341 Q1418.08 72.2924 1414.72 73.0216 Q1411.4 73.7508 1407.63 73.7508 Q1397.38 73.7508 1391.35 67.3098 Q1385.31 60.8689 1385.31 49.9314 Q1385.31 38.832 1391.39 32.472 Q1397.5 26.1121 1408.12 26.1121 Q1411.56 26.1121 1414.84 26.8413 Q1418.12 27.5299 1421.2 28.9478 Z" fill="#000000" fill-rule="nonzero" fill-opacity="1" /><path clip-path="url(#clip760)" d="M1441.54 14.324 L1441.54 27.2059 L1456.89 27.2059 L1456.89 32.9987 L1441.54 32.9987 L1441.54 57.6282 Q1441.54 63.1779 1443.04 64.7578 Q1444.57 66.3376 1449.23 66.3376 L1456.89 66.3376 L1456.89 72.576 L1449.23 72.576 Q1440.6 72.576 1437.32 69.3758 Q1434.04 66.1351 1434.04 57.6282 L1434.04 32.9987 L1428.57 32.9987 L1428.57 27.2059 L1434.04 27.2059 L1434.04 14.324 L1441.54 14.324 Z" fill="#000000" fill-rule="nonzero" fill-opacity="1" /><path clip-path="url(#clip760)" d="M1484.27 32.4315 Q1478.28 32.4315 1474.79 37.1306 Q1471.31 41.7891 1471.31 49.9314 Q1471.31 58.0738 1474.75 62.7728 Q1478.24 67.4314 1484.27 67.4314 Q1490.23 67.4314 1493.71 62.7323 Q1497.2 58.0333 1497.2 49.9314 Q1497.2 41.8701 1493.71 37.1711 Q1490.23 32.4315 1484.27 32.4315 M1484.27 26.1121 Q1494 26.1121 1499.55 32.4315 Q1505.1 38.7509 1505.1 49.9314 Q1505.1 61.0714 1499.55 67.4314 Q1494 73.7508 1484.27 73.7508 Q1474.51 73.7508 1468.96 67.4314 Q1463.45 61.0714 1463.45 49.9314 Q1463.45 38.7509 1468.96 32.4315 Q1474.51 26.1121 1484.27 26.1121 Z" fill="#000000" fill-rule="nonzero" fill-opacity="1" /><path clip-path="url(#clip760)" d="M1543.74 34.1734 Q1542.49 33.4443 1540.99 33.1202 Q1539.53 32.7556 1537.75 32.7556 Q1531.43 32.7556 1528.02 36.8875 Q1524.66 40.9789 1524.66 48.6757 L1524.66 72.576 L1517.17 72.576 L1517.17 27.2059 L1524.66 27.2059 L1524.66 34.2544 Q1527.01 30.1225 1530.78 28.1376 Q1534.55 26.1121 1539.93 26.1121 Q1540.7 26.1121 1541.63 26.2337 Q1542.57 26.3147 1543.7 26.5172 L1543.74 34.1734 Z" fill="#000000" fill-rule="nonzero" fill-opacity="1" /><path clip-path="url(#clip760)" d="M1570.44 76.7889 Q1567.28 84.8907 1564.28 87.3618 Q1561.28 89.8329 1556.26 89.8329 L1550.3 89.8329 L1550.3 83.5945 L1554.68 83.5945 Q1557.76 83.5945 1559.46 82.1361 Q1561.16 80.6778 1563.23 75.2496 L1564.56 71.8468 L1546.21 27.2059 L1554.11 27.2059 L1568.29 62.6918 L1582.47 27.2059 L1590.37 27.2059 L1570.44 76.7889 Z" fill="#000000" fill-rule="nonzero" fill-opacity="1" /><circle clip-path="url(#clip762)" cx="332.75" cy="278.94" r="14.4" fill="#009af9" fill-rule="evenodd" fill-opacity="1" stroke="#000000" stroke-opacity="1" stroke-width="3.2"/>
<circle clip-path="url(#clip762)" cx="417.91" cy="1447.87" r="14.4" fill="#009af9" fill-rule="evenodd" fill-opacity="1" stroke="#000000" stroke-opacity="1" stroke-width="3.2"/>
<circle clip-path="url(#clip762)" cx="503.071" cy="278.94" r="14.4" fill="#009af9" fill-rule="evenodd" fill-opacity="1" stroke="#000000" stroke-opacity="1" stroke-width="3.2"/>
<circle clip-path="url(#clip762)" cx="588.231" cy="278.94" r="14.4" fill="#009af9" fill-rule="evenodd" fill-opacity="1" stroke="#000000" stroke-opacity="1" stroke-width="3.2"/>
<circle clip-path="url(#clip762)" cx="673.392" cy="278.94" r="14.4" fill="#009af9" fill-rule="evenodd" fill-opacity="1" stroke="#000000" stroke-opacity="1" stroke-width="3.2"/>
<circle clip-path="url(#clip762)" cx="758.552" cy="1447.87" r="14.4" fill="#009af9" fill-rule="evenodd" fill-opacity="1" stroke="#000000" stroke-opacity="1" stroke-width="3.2"/>
<circle clip-path="url(#clip762)" cx="843.713" cy="278.94" r="14.4" fill="#009af9" fill-rule="evenodd" fill-opacity="1" stroke="#000000" stroke-opacity="1" stroke-width="3.2"/>
<circle clip-path="url(#clip762)" cx="928.873" cy="1447.87" r="14.4" fill="#009af9" fill-rule="evenodd" fill-opacity="1" stroke="#000000" stroke-opacity="1" stroke-width="3.2"/>
<circle clip-path="url(#clip762)" cx="1014.03" cy="278.94" r="14.4" fill="#009af9" fill-rule="evenodd" fill-opacity="1" stroke="#000000" stroke-opacity="1" stroke-width="3.2"/>
<circle clip-path="url(#clip762)" cx="1099.19" cy="1447.87" r="14.4" fill="#009af9" fill-rule="evenodd" fill-opacity="1" stroke="#000000" stroke-opacity="1" stroke-width="3.2"/>
<circle clip-path="url(#clip762)" cx="1184.35" cy="278.94" r="14.4" fill="#009af9" fill-rule="evenodd" fill-opacity="1" stroke="#000000" stroke-opacity="1" stroke-width="3.2"/>
<circle clip-path="url(#clip762)" cx="1269.51" cy="1447.87" r="14.4" fill="#009af9" fill-rule="evenodd" fill-opacity="1" stroke="#000000" stroke-opacity="1" stroke-width="3.2"/>
<circle clip-path="url(#clip762)" cx="1354.68" cy="278.94" r="14.4" fill="#009af9" fill-rule="evenodd" fill-opacity="1" stroke="#000000" stroke-opacity="1" stroke-width="3.2"/>
<circle clip-path="url(#clip762)" cx="1439.84" cy="278.94" r="14.4" fill="#009af9" fill-rule="evenodd" fill-opacity="1" stroke="#000000" stroke-opacity="1" stroke-width="3.2"/>
<circle clip-path="url(#clip762)" cx="1525" cy="278.94" r="14.4" fill="#009af9" fill-rule="evenodd" fill-opacity="1" stroke="#000000" stroke-opacity="1" stroke-width="3.2"/>
<circle clip-path="url(#clip762)" cx="1610.16" cy="278.94" r="14.4" fill="#009af9" fill-rule="evenodd" fill-opacity="1" stroke="#000000" stroke-opacity="1" stroke-width="3.2"/>
<circle clip-path="url(#clip762)" cx="1695.32" cy="278.94" r="14.4" fill="#009af9" fill-rule="evenodd" fill-opacity="1" stroke="#000000" stroke-opacity="1" stroke-width="3.2"/>
<circle clip-path="url(#clip762)" cx="1780.48" cy="1447.87" r="14.4" fill="#009af9" fill-rule="evenodd" fill-opacity="1" stroke="#000000" stroke-opacity="1" stroke-width="3.2"/>
<circle clip-path="url(#clip762)" cx="1865.64" cy="1447.87" r="14.4" fill="#009af9" fill-rule="evenodd" fill-opacity="1" stroke="#000000" stroke-opacity="1" stroke-width="3.2"/>
<circle clip-path="url(#clip762)" cx="1950.8" cy="278.94" r="14.4" fill="#009af9" fill-rule="evenodd" fill-opacity="1" stroke="#000000" stroke-opacity="1" stroke-width="3.2"/>
<circle clip-path="url(#clip762)" cx="2035.96" cy="1447.87" r="14.4" fill="#009af9" fill-rule="evenodd" fill-opacity="1" stroke="#000000" stroke-opacity="1" stroke-width="3.2"/>
<circle clip-path="url(#clip762)" cx="2121.12" cy="1447.87" r="14.4" fill="#009af9" fill-rule="evenodd" fill-opacity="1" stroke="#000000" stroke-opacity="1" stroke-width="3.2"/>
<circle clip-path="url(#clip762)" cx="2206.28" cy="1447.87" r="14.4" fill="#009af9" fill-rule="evenodd" fill-opacity="1" stroke="#000000" stroke-opacity="1" stroke-width="3.2"/>
<circle clip-path="url(#clip762)" cx="2291.44" cy="1447.87" r="14.4" fill="#009af9" fill-rule="evenodd" fill-opacity="1" stroke="#000000" stroke-opacity="1" stroke-width="3.2"/>
<circle clip-path="url(#clip762)" cx="332.75" cy="162.047" r="14.4" fill="#e26f46" fill-rule="evenodd" fill-opacity="1" stroke="#000000" stroke-opacity="1" stroke-width="3.2"/>
<circle clip-path="url(#clip762)" cx="417.91" cy="162.047" r="14.4" fill="#e26f46" fill-rule="evenodd" fill-opacity="1" stroke="#000000" stroke-opacity="1" stroke-width="3.2"/>
<circle clip-path="url(#clip762)" cx="503.071" cy="162.047" r="14.4" fill="#e26f46" fill-rule="evenodd" fill-opacity="1" stroke="#000000" stroke-opacity="1" stroke-width="3.2"/>
<circle clip-path="url(#clip762)" cx="588.231" cy="1330.98" r="14.4" fill="#e26f46" fill-rule="evenodd" fill-opacity="1" stroke="#000000" stroke-opacity="1" stroke-width="3.2"/>
<circle clip-path="url(#clip762)" cx="673.392" cy="1330.98" r="14.4" fill="#e26f46" fill-rule="evenodd" fill-opacity="1" stroke="#000000" stroke-opacity="1" stroke-width="3.2"/>
<circle clip-path="url(#clip762)" cx="758.552" cy="1330.98" r="14.4" fill="#e26f46" fill-rule="evenodd" fill-opacity="1" stroke="#000000" stroke-opacity="1" stroke-width="3.2"/>
<circle clip-path="url(#clip762)" cx="843.713" cy="162.047" r="14.4" fill="#e26f46" fill-rule="evenodd" fill-opacity="1" stroke="#000000" stroke-opacity="1" stroke-width="3.2"/>
<circle clip-path="url(#clip762)" cx="928.873" cy="1330.98" r="14.4" fill="#e26f46" fill-rule="evenodd" fill-opacity="1" stroke="#000000" stroke-opacity="1" stroke-width="3.2"/>
<circle clip-path="url(#clip762)" cx="1014.03" cy="162.047" r="14.4" fill="#e26f46" fill-rule="evenodd" fill-opacity="1" stroke="#000000" stroke-opacity="1" stroke-width="3.2"/>
<circle clip-path="url(#clip762)" cx="1099.19" cy="162.047" r="14.4" fill="#e26f46" fill-rule="evenodd" fill-opacity="1" stroke="#000000" stroke-opacity="1" stroke-width="3.2"/>
<circle clip-path="url(#clip762)" cx="1184.35" cy="1330.98" r="14.4" fill="#e26f46" fill-rule="evenodd" fill-opacity="1" stroke="#000000" stroke-opacity="1" stroke-width="3.2"/>
<circle clip-path="url(#clip762)" cx="1269.51" cy="1330.98" r="14.4" fill="#e26f46" fill-rule="evenodd" fill-opacity="1" stroke="#000000" stroke-opacity="1" stroke-width="3.2"/>
<circle clip-path="url(#clip762)" cx="1354.68" cy="162.047" r="14.4" fill="#e26f46" fill-rule="evenodd" fill-opacity="1" stroke="#000000" stroke-opacity="1" stroke-width="3.2"/>
<circle clip-path="url(#clip762)" cx="1439.84" cy="162.047" r="14.4" fill="#e26f46" fill-rule="evenodd" fill-opacity="1" stroke="#000000" stroke-opacity="1" stroke-width="3.2"/>
<circle clip-path="url(#clip762)" cx="1525" cy="162.047" r="14.4" fill="#e26f46" fill-rule="evenodd" fill-opacity="1" stroke="#000000" stroke-opacity="1" stroke-width="3.2"/>
<circle clip-path="url(#clip762)" cx="1610.16" cy="162.047" r="14.4" fill="#e26f46" fill-rule="evenodd" fill-opacity="1" stroke="#000000" stroke-opacity="1" stroke-width="3.2"/>
<circle clip-path="url(#clip762)" cx="1695.32" cy="1330.98" r="14.4" fill="#e26f46" fill-rule="evenodd" fill-opacity="1" stroke="#000000" stroke-opacity="1" stroke-width="3.2"/>
<circle clip-path="url(#clip762)" cx="1780.48" cy="162.047" r="14.4" fill="#e26f46" fill-rule="evenodd" fill-opacity="1" stroke="#000000" stroke-opacity="1" stroke-width="3.2"/>
<circle clip-path="url(#clip762)" cx="1865.64" cy="162.047" r="14.4" fill="#e26f46" fill-rule="evenodd" fill-opacity="1" stroke="#000000" stroke-opacity="1" stroke-width="3.2"/>
<circle clip-path="url(#clip762)" cx="1950.8" cy="1330.98" r="14.4" fill="#e26f46" fill-rule="evenodd" fill-opacity="1" stroke="#000000" stroke-opacity="1" stroke-width="3.2"/>
<circle clip-path="url(#clip762)" cx="2035.96" cy="162.047" r="14.4" fill="#e26f46" fill-rule="evenodd" fill-opacity="1" stroke="#000000" stroke-opacity="1" stroke-width="3.2"/>
<circle clip-path="url(#clip762)" cx="2121.12" cy="162.047" r="14.4" fill="#e26f46" fill-rule="evenodd" fill-opacity="1" stroke="#000000" stroke-opacity="1" stroke-width="3.2"/>
<circle clip-path="url(#clip762)" cx="2206.28" cy="1330.98" r="14.4" fill="#e26f46" fill-rule="evenodd" fill-opacity="1" stroke="#000000" stroke-opacity="1" stroke-width="3.2"/>
<circle clip-path="url(#clip762)" cx="2291.44" cy="162.047" r="14.4" fill="#e26f46" fill-rule="evenodd" fill-opacity="1" stroke="#000000" stroke-opacity="1" stroke-width="3.2"/>
<polyline clip-path="url(#clip762)" style="stroke:#3da44d; stroke-linecap:round; stroke-linejoin:round; stroke-width:4; stroke-opacity:1; fill:none" points="332.75,863.407 417.91,736.256 503.071,880.092 588.231,765.102 673.392,680.242 758.552,616.836 843.713,754.232 928.873,674.56 1014.03,806.124 1099.19,716.45 1184.35,841.351 1269.51,745.65 1354.68,865.219 1439.84,765.732 1525,687.195 1610.16,625.729 1695.32,577.226 1780.48,538.423 1865.64,671.693 1950.8,805.842 2035.96,715.173 2121.12,841.294 2206.28,946.323 2291.44,1028.91 "/>
<path clip-path="url(#clip760)" d="M1715 376.265 L2280.54 376.265 L2280.54 168.905 L1715 168.905  Z" fill="#ffffff" fill-rule="evenodd" fill-opacity="1"/>
<polyline clip-path="url(#clip760)" style="stroke:#000000; stroke-linecap:round; stroke-linejoin:round; stroke-width:4; stroke-opacity:1; fill:none" points="1715,376.265 2280.54,376.265 2280.54,168.905 1715,168.905 1715,376.265 "/>
<circle clip-path="url(#clip760)" cx="1811.29" cy="220.745" r="20.48" fill="#009af9" fill-rule="evenodd" fill-opacity="1" stroke="#000000" stroke-opacity="1" stroke-width="4.55111"/>
<path clip-path="url(#clip760)" d="M1907.58 227.793 L1907.58 212.099 L1911.84 212.099 L1911.84 227.631 Q1911.84 231.312 1913.28 233.164 Q1914.71 234.992 1917.58 234.992 Q1921.03 234.992 1923.02 232.793 Q1925.03 230.594 1925.03 226.798 L1925.03 212.099 L1929.29 212.099 L1929.29 238.025 L1925.03 238.025 L1925.03 234.043 Q1923.48 236.404 1921.42 237.562 Q1919.39 238.696 1916.68 238.696 Q1912.21 238.696 1909.9 235.918 Q1907.58 233.14 1907.58 227.793 M1918.3 211.474 L1918.3 211.474 Z" fill="#000000" fill-rule="nonzero" fill-opacity="1" /><path clip-path="url(#clip760)" d="M1953.14 212.099 L1957.4 212.099 L1957.4 238.025 L1953.14 238.025 L1953.14 212.099 M1953.14 202.006 L1957.4 202.006 L1957.4 207.4 L1953.14 207.4 L1953.14 202.006 Z" fill="#000000" fill-rule="nonzero" fill-opacity="1" /><path clip-path="url(#clip760)" d="M1987.86 222.377 L1987.86 238.025 L1983.6 238.025 L1983.6 222.515 Q1983.6 218.835 1982.16 217.006 Q1980.73 215.178 1977.86 215.178 Q1974.41 215.178 1972.42 217.377 Q1970.43 219.576 1970.43 223.372 L1970.43 238.025 L1966.15 238.025 L1966.15 212.099 L1970.43 212.099 L1970.43 216.127 Q1971.96 213.789 1974.02 212.631 Q1976.1 211.474 1978.81 211.474 Q1983.27 211.474 1985.57 214.252 Q1987.86 217.006 1987.86 222.377 Z" fill="#000000" fill-rule="nonzero" fill-opacity="1" /><path clip-path="url(#clip760)" d="M2000.47 234.136 L2000.47 247.886 L1996.19 247.886 L1996.19 212.099 L2000.47 212.099 L2000.47 216.034 Q2001.82 213.719 2003.85 212.608 Q2005.91 211.474 2008.76 211.474 Q2013.48 211.474 2016.42 215.224 Q2019.39 218.974 2019.39 225.085 Q2019.39 231.196 2016.42 234.946 Q2013.48 238.696 2008.76 238.696 Q2005.91 238.696 2003.85 237.585 Q2001.82 236.451 2000.47 234.136 M2014.96 225.085 Q2014.96 220.386 2013.02 217.724 Q2011.1 215.039 2007.72 215.039 Q2004.34 215.039 2002.4 217.724 Q2000.47 220.386 2000.47 225.085 Q2000.47 229.784 2002.4 232.469 Q2004.34 235.131 2007.72 235.131 Q2011.1 235.131 2013.02 232.469 Q2014.96 229.784 2014.96 225.085 Z" fill="#000000" fill-rule="nonzero" fill-opacity="1" /><path clip-path="url(#clip760)" d="M2026.01 227.793 L2026.01 212.099 L2030.27 212.099 L2030.27 227.631 Q2030.27 231.312 2031.7 233.164 Q2033.14 234.992 2036.01 234.992 Q2039.46 234.992 2041.45 232.793 Q2043.46 230.594 2043.46 226.798 L2043.46 212.099 L2047.72 212.099 L2047.72 238.025 L2043.46 238.025 L2043.46 234.043 Q2041.91 236.404 2039.85 237.562 Q2037.81 238.696 2035.1 238.696 Q2030.64 238.696 2028.32 235.918 Q2026.01 233.14 2026.01 227.793 M2036.72 211.474 L2036.72 211.474 Z" fill="#000000" fill-rule="nonzero" fill-opacity="1" /><path clip-path="url(#clip760)" d="M2060.7 204.738 L2060.7 212.099 L2069.48 212.099 L2069.48 215.409 L2060.7 215.409 L2060.7 229.483 Q2060.7 232.654 2061.56 233.557 Q2062.44 234.46 2065.1 234.46 L2069.48 234.46 L2069.48 238.025 L2065.1 238.025 Q2060.17 238.025 2058.3 236.196 Q2056.42 234.344 2056.42 229.483 L2056.42 215.409 L2053.3 215.409 L2053.3 212.099 L2056.42 212.099 L2056.42 204.738 L2060.7 204.738 Z" fill="#000000" fill-rule="nonzero" fill-opacity="1" /><path clip-path="url(#clip760)" d="M2094.78 245.895 L2094.78 249.205 L2070.15 249.205 L2070.15 245.895 L2094.78 245.895 Z" fill="#000000" fill-rule="nonzero" fill-opacity="1" /><path clip-path="url(#clip760)" d="M2095.73 212.099 L2100.24 212.099 L2108.34 233.858 L2116.45 212.099 L2120.96 212.099 L2111.24 238.025 L2105.45 238.025 L2095.73 212.099 Z" fill="#000000" fill-rule="nonzero" fill-opacity="1" /><path clip-path="url(#clip760)" d="M2138.62 224.992 Q2133.46 224.992 2131.47 226.173 Q2129.48 227.353 2129.48 230.201 Q2129.48 232.469 2130.96 233.812 Q2132.46 235.131 2135.03 235.131 Q2138.57 235.131 2140.7 232.631 Q2142.86 230.108 2142.86 225.941 L2142.86 224.992 L2138.62 224.992 M2147.12 223.233 L2147.12 238.025 L2142.86 238.025 L2142.86 234.089 Q2141.4 236.451 2139.22 237.585 Q2137.05 238.696 2133.9 238.696 Q2129.92 238.696 2127.56 236.474 Q2125.22 234.228 2125.22 230.478 Q2125.22 226.103 2128.14 223.881 Q2131.07 221.659 2136.89 221.659 L2142.86 221.659 L2142.86 221.242 Q2142.86 218.303 2140.91 216.705 Q2138.99 215.085 2135.5 215.085 Q2133.27 215.085 2131.17 215.617 Q2129.06 216.15 2127.12 217.215 L2127.12 213.279 Q2129.45 212.377 2131.65 211.937 Q2133.85 211.474 2135.94 211.474 Q2141.56 211.474 2144.34 214.391 Q2147.12 217.307 2147.12 223.233 Z" fill="#000000" fill-rule="nonzero" fill-opacity="1" /><path clip-path="url(#clip760)" d="M2155.89 202.006 L2160.15 202.006 L2160.15 238.025 L2155.89 238.025 L2155.89 202.006 Z" fill="#000000" fill-rule="nonzero" fill-opacity="1" /><path clip-path="url(#clip760)" d="M2168.62 227.793 L2168.62 212.099 L2172.88 212.099 L2172.88 227.631 Q2172.88 231.312 2174.32 233.164 Q2175.75 234.992 2178.62 234.992 Q2182.07 234.992 2184.06 232.793 Q2186.07 230.594 2186.07 226.798 L2186.07 212.099 L2190.33 212.099 L2190.33 238.025 L2186.07 238.025 L2186.07 234.043 Q2184.52 236.404 2182.46 237.562 Q2180.43 238.696 2177.72 238.696 Q2173.25 238.696 2170.94 235.918 Q2168.62 233.14 2168.62 227.793 M2179.34 211.474 L2179.34 211.474 Z" fill="#000000" fill-rule="nonzero" fill-opacity="1" /><path clip-path="url(#clip760)" d="M2221.28 223.997 L2221.28 226.08 L2201.7 226.08 Q2201.98 230.478 2204.34 232.793 Q2206.72 235.085 2210.96 235.085 Q2213.41 235.085 2215.7 234.483 Q2218.02 233.881 2220.29 232.677 L2220.29 236.705 Q2218 237.677 2215.59 238.187 Q2213.18 238.696 2210.7 238.696 Q2204.5 238.696 2200.87 235.085 Q2197.26 231.474 2197.26 225.316 Q2197.26 218.951 2200.68 215.224 Q2204.13 211.474 2209.96 211.474 Q2215.19 211.474 2218.23 214.853 Q2221.28 218.21 2221.28 223.997 M2217.02 222.747 Q2216.98 219.252 2215.06 217.168 Q2213.16 215.085 2210.01 215.085 Q2206.44 215.085 2204.29 217.099 Q2202.16 219.113 2201.84 222.77 L2217.02 222.747 Z" fill="#000000" fill-rule="nonzero" fill-opacity="1" /><circle clip-path="url(#clip760)" cx="1811.29" cy="272.585" r="20.48" fill="#e26f46" fill-rule="evenodd" fill-opacity="1" stroke="#000000" stroke-opacity="1" stroke-width="4.55111"/>
<path clip-path="url(#clip760)" d="M1920.98 276.832 Q1915.82 276.832 1913.83 278.013 Q1911.84 279.193 1911.84 282.041 Q1911.84 284.309 1913.32 285.652 Q1914.83 286.971 1917.4 286.971 Q1920.94 286.971 1923.07 284.471 Q1925.22 281.948 1925.22 277.781 L1925.22 276.832 L1920.98 276.832 M1929.48 275.073 L1929.48 289.865 L1925.22 289.865 L1925.22 285.929 Q1923.76 288.291 1921.59 289.425 Q1919.41 290.536 1916.26 290.536 Q1912.28 290.536 1909.92 288.314 Q1907.58 286.068 1907.58 282.318 Q1907.58 277.943 1910.5 275.721 Q1913.44 273.499 1919.25 273.499 L1925.22 273.499 L1925.22 273.082 Q1925.22 270.143 1923.28 268.545 Q1921.35 266.925 1917.86 266.925 Q1915.64 266.925 1913.53 267.457 Q1911.42 267.99 1909.48 269.055 L1909.48 265.119 Q1911.82 264.217 1914.02 263.777 Q1916.22 263.314 1918.3 263.314 Q1923.92 263.314 1926.7 266.231 Q1929.48 269.147 1929.48 275.073 Z" fill="#000000" fill-rule="nonzero" fill-opacity="1" /><path clip-path="url(#clip760)" d="M1956.91 264.934 L1956.91 268.916 Q1955.1 267.92 1953.28 267.434 Q1951.47 266.925 1949.62 266.925 Q1945.47 266.925 1943.18 269.564 Q1940.89 272.18 1940.89 276.925 Q1940.89 281.67 1943.18 284.309 Q1945.47 286.925 1949.62 286.925 Q1951.47 286.925 1953.28 286.439 Q1955.1 285.929 1956.91 284.934 L1956.91 288.869 Q1955.13 289.703 1953.21 290.119 Q1951.31 290.536 1949.15 290.536 Q1943.3 290.536 1939.85 286.855 Q1936.4 283.175 1936.4 276.925 Q1936.4 270.582 1939.87 266.948 Q1943.37 263.314 1949.43 263.314 Q1951.4 263.314 1953.28 263.731 Q1955.15 264.124 1956.91 264.934 Z" fill="#000000" fill-rule="nonzero" fill-opacity="1" /><path clip-path="url(#clip760)" d="M1968.53 256.578 L1968.53 263.939 L1977.3 263.939 L1977.3 267.249 L1968.53 267.249 L1968.53 281.323 Q1968.53 284.494 1969.39 285.397 Q1970.27 286.3 1972.93 286.3 L1977.3 286.3 L1977.3 289.865 L1972.93 289.865 Q1968 289.865 1966.12 288.036 Q1964.25 286.184 1964.25 281.323 L1964.25 267.249 L1961.12 267.249 L1961.12 263.939 L1964.25 263.939 L1964.25 256.578 L1968.53 256.578 Z" fill="#000000" fill-rule="nonzero" fill-opacity="1" /><path clip-path="url(#clip760)" d="M1982.9 263.939 L1987.16 263.939 L1987.16 289.865 L1982.9 289.865 L1982.9 263.939 M1982.9 253.846 L1987.16 253.846 L1987.16 259.24 L1982.9 259.24 L1982.9 253.846 Z" fill="#000000" fill-rule="nonzero" fill-opacity="1" /><path clip-path="url(#clip760)" d="M2006.12 266.925 Q2002.7 266.925 2000.71 269.61 Q1998.71 272.272 1998.71 276.925 Q1998.71 281.578 2000.68 284.263 Q2002.67 286.925 2006.12 286.925 Q2009.52 286.925 2011.52 284.24 Q2013.51 281.555 2013.51 276.925 Q2013.51 272.318 2011.52 269.633 Q2009.52 266.925 2006.12 266.925 M2006.12 263.314 Q2011.68 263.314 2014.85 266.925 Q2018.02 270.536 2018.02 276.925 Q2018.02 283.291 2014.85 286.925 Q2011.68 290.536 2006.12 290.536 Q2000.54 290.536 1997.37 286.925 Q1994.22 283.291 1994.22 276.925 Q1994.22 270.536 1997.37 266.925 Q2000.54 263.314 2006.12 263.314 Z" fill="#000000" fill-rule="nonzero" fill-opacity="1" /><path clip-path="url(#clip760)" d="M2046.63 274.217 L2046.63 289.865 L2042.37 289.865 L2042.37 274.355 Q2042.37 270.675 2040.94 268.846 Q2039.5 267.018 2036.63 267.018 Q2033.18 267.018 2031.19 269.217 Q2029.2 271.416 2029.2 275.212 L2029.2 289.865 L2024.92 289.865 L2024.92 263.939 L2029.2 263.939 L2029.2 267.967 Q2030.73 265.629 2032.79 264.471 Q2034.87 263.314 2037.58 263.314 Q2042.05 263.314 2044.34 266.092 Q2046.63 268.846 2046.63 274.217 Z" fill="#000000" fill-rule="nonzero" fill-opacity="1" /><polyline clip-path="url(#clip760)" style="stroke:#3da44d; stroke-linecap:round; stroke-linejoin:round; stroke-width:4; stroke-opacity:1; fill:none" points="1739.08,324.425 1883.51,324.425 "/>
<path clip-path="url(#clip760)" d="M1932.23 315.779 L1922.86 328.395 L1932.72 341.705 L1927.7 341.705 L1920.15 331.52 L1912.6 341.705 L1907.58 341.705 L1917.65 328.14 L1908.44 315.779 L1913.46 315.779 L1920.34 325.015 L1927.21 315.779 L1932.23 315.779 Z" fill="#000000" fill-rule="nonzero" fill-opacity="1" /><path clip-path="url(#clip760)" d="M1957.35 328.765 Q1957.35 324.066 1955.4 321.404 Q1953.48 318.719 1950.1 318.719 Q1946.72 318.719 1944.78 321.404 Q1942.86 324.066 1942.86 328.765 Q1942.86 333.464 1944.78 336.149 Q1946.72 338.811 1950.1 338.811 Q1953.48 338.811 1955.4 336.149 Q1957.35 333.464 1957.35 328.765 M1942.86 319.714 Q1944.2 317.399 1946.24 316.288 Q1948.3 315.154 1951.15 315.154 Q1955.87 315.154 1958.81 318.904 Q1961.77 322.654 1961.77 328.765 Q1961.77 334.876 1958.81 338.626 Q1955.87 342.376 1951.15 342.376 Q1948.3 342.376 1946.24 341.265 Q1944.2 340.131 1942.86 337.816 L1942.86 341.705 L1938.58 341.705 L1938.58 305.686 L1942.86 305.686 L1942.86 319.714 Z" fill="#000000" fill-rule="nonzero" fill-opacity="1" /><path clip-path="url(#clip760)" d="M1968.83 315.779 L1973.09 315.779 L1973.09 341.705 L1968.83 341.705 L1968.83 315.779 M1968.83 305.686 L1973.09 305.686 L1973.09 311.08 L1968.83 311.08 L1968.83 305.686 Z" fill="#000000" fill-rule="nonzero" fill-opacity="1" /><path clip-path="url(#clip760)" d="M2003.55 326.057 L2003.55 341.705 L1999.29 341.705 L1999.29 326.195 Q1999.29 322.515 1997.86 320.686 Q1996.42 318.858 1993.55 318.858 Q1990.1 318.858 1988.11 321.057 Q1986.12 323.256 1986.12 327.052 L1986.12 341.705 L1981.84 341.705 L1981.84 315.779 L1986.12 315.779 L1986.12 319.807 Q1987.65 317.469 1989.71 316.311 Q1991.79 315.154 1994.5 315.154 Q1998.97 315.154 2001.26 317.932 Q2003.55 320.686 2003.55 326.057 Z" fill="#000000" fill-rule="nonzero" fill-opacity="1" /><path clip-path="url(#clip760)" d="M2031.24 337.816 L2031.24 351.566 L2026.96 351.566 L2026.96 315.779 L2031.24 315.779 L2031.24 319.714 Q2032.58 317.399 2034.62 316.288 Q2036.68 315.154 2039.52 315.154 Q2044.25 315.154 2047.19 318.904 Q2050.15 322.654 2050.15 328.765 Q2050.15 334.876 2047.19 338.626 Q2044.25 342.376 2039.52 342.376 Q2036.68 342.376 2034.62 341.265 Q2032.58 340.131 2031.24 337.816 M2045.73 328.765 Q2045.73 324.066 2043.78 321.404 Q2041.86 318.719 2038.48 318.719 Q2035.1 318.719 2033.16 321.404 Q2031.24 324.066 2031.24 328.765 Q2031.24 333.464 2033.16 336.149 Q2035.1 338.811 2038.48 338.811 Q2041.86 338.811 2043.78 336.149 Q2045.73 333.464 2045.73 328.765 Z" fill="#000000" fill-rule="nonzero" fill-opacity="1" /><path clip-path="url(#clip760)" d="M2072.23 319.76 Q2071.52 319.344 2070.66 319.158 Q2069.83 318.95 2068.81 318.95 Q2065.2 318.95 2063.25 321.311 Q2061.33 323.649 2061.33 328.047 L2061.33 341.705 L2057.05 341.705 L2057.05 315.779 L2061.33 315.779 L2061.33 319.807 Q2062.67 317.446 2064.83 316.311 Q2066.98 315.154 2070.06 315.154 Q2070.5 315.154 2071.03 315.223 Q2071.56 315.27 2072.21 315.385 L2072.23 319.76 Z" fill="#000000" fill-rule="nonzero" fill-opacity="1" /><path clip-path="url(#clip760)" d="M2097.83 327.677 L2097.83 329.76 L2078.25 329.76 Q2078.53 334.158 2080.89 336.473 Q2083.27 338.765 2087.51 338.765 Q2089.96 338.765 2092.26 338.163 Q2094.57 337.561 2096.84 336.357 L2096.84 340.385 Q2094.55 341.357 2092.14 341.867 Q2089.73 342.376 2087.26 342.376 Q2081.05 342.376 2077.42 338.765 Q2073.81 335.154 2073.81 328.996 Q2073.81 322.631 2077.23 318.904 Q2080.68 315.154 2086.52 315.154 Q2091.75 315.154 2094.78 318.533 Q2097.83 321.89 2097.83 327.677 M2093.58 326.427 Q2093.53 322.932 2091.61 320.848 Q2089.71 318.765 2086.56 318.765 Q2083 318.765 2080.84 320.779 Q2078.71 322.793 2078.39 326.45 L2093.58 326.427 Z" fill="#000000" fill-rule="nonzero" fill-opacity="1" /><path clip-path="url(#clip760)" d="M2121.89 319.714 L2121.89 305.686 L2126.14 305.686 L2126.14 341.705 L2121.89 341.705 L2121.89 337.816 Q2120.54 340.131 2118.48 341.265 Q2116.45 342.376 2113.58 342.376 Q2108.88 342.376 2105.91 338.626 Q2102.97 334.876 2102.97 328.765 Q2102.97 322.654 2105.91 318.904 Q2108.88 315.154 2113.58 315.154 Q2116.45 315.154 2118.48 316.288 Q2120.54 317.399 2121.89 319.714 M2107.37 328.765 Q2107.37 333.464 2109.29 336.149 Q2111.24 338.811 2114.62 338.811 Q2118 338.811 2119.94 336.149 Q2121.89 333.464 2121.89 328.765 Q2121.89 324.066 2119.94 321.404 Q2118 318.719 2114.62 318.719 Q2111.24 318.719 2109.29 321.404 Q2107.37 324.066 2107.37 328.765 Z" fill="#000000" fill-rule="nonzero" fill-opacity="1" /><path clip-path="url(#clip760)" d="M2134.92 315.779 L2139.18 315.779 L2139.18 341.705 L2134.92 341.705 L2134.92 315.779 M2134.92 305.686 L2139.18 305.686 L2139.18 311.08 L2134.92 311.08 L2134.92 305.686 Z" fill="#000000" fill-rule="nonzero" fill-opacity="1" /><path clip-path="url(#clip760)" d="M2166.75 316.774 L2166.75 320.756 Q2164.94 319.76 2163.11 319.274 Q2161.31 318.765 2159.45 318.765 Q2155.31 318.765 2153.02 321.404 Q2150.73 324.02 2150.73 328.765 Q2150.73 333.51 2153.02 336.149 Q2155.31 338.765 2159.45 338.765 Q2161.31 338.765 2163.11 338.279 Q2164.94 337.769 2166.75 336.774 L2166.75 340.709 Q2164.96 341.543 2163.04 341.959 Q2161.14 342.376 2158.99 342.376 Q2153.14 342.376 2149.69 338.695 Q2146.24 335.015 2146.24 328.765 Q2146.24 322.422 2149.71 318.788 Q2153.2 315.154 2159.27 315.154 Q2161.24 315.154 2163.11 315.571 Q2164.99 315.964 2166.75 316.774 Z" fill="#000000" fill-rule="nonzero" fill-opacity="1" /><path clip-path="url(#clip760)" d="M2178.37 308.418 L2178.37 315.779 L2187.14 315.779 L2187.14 319.089 L2178.37 319.089 L2178.37 333.163 Q2178.37 336.334 2179.22 337.237 Q2180.1 338.14 2182.76 338.14 L2187.14 338.14 L2187.14 341.705 L2182.76 341.705 Q2177.83 341.705 2175.96 339.876 Q2174.08 338.024 2174.08 333.163 L2174.08 319.089 L2170.96 319.089 L2170.96 315.779 L2174.08 315.779 L2174.08 308.418 L2178.37 308.418 Z" fill="#000000" fill-rule="nonzero" fill-opacity="1" /><path clip-path="url(#clip760)" d="M2192.74 315.779 L2197 315.779 L2197 341.705 L2192.74 341.705 L2192.74 315.779 M2192.74 305.686 L2197 305.686 L2197 311.08 L2192.74 311.08 L2192.74 305.686 Z" fill="#000000" fill-rule="nonzero" fill-opacity="1" /><path clip-path="url(#clip760)" d="M2215.96 318.765 Q2212.53 318.765 2210.54 321.45 Q2208.55 324.112 2208.55 328.765 Q2208.55 333.418 2210.52 336.103 Q2212.51 338.765 2215.96 338.765 Q2219.36 338.765 2221.35 336.08 Q2223.34 333.395 2223.34 328.765 Q2223.34 324.158 2221.35 321.473 Q2219.36 318.765 2215.96 318.765 M2215.96 315.154 Q2221.51 315.154 2224.69 318.765 Q2227.86 322.376 2227.86 328.765 Q2227.86 335.131 2224.69 338.765 Q2221.51 342.376 2215.96 342.376 Q2210.38 342.376 2207.21 338.765 Q2204.06 335.131 2204.06 328.765 Q2204.06 322.376 2207.21 318.765 Q2210.38 315.154 2215.96 315.154 Z" fill="#000000" fill-rule="nonzero" fill-opacity="1" /><path clip-path="url(#clip760)" d="M2256.47 326.057 L2256.47 341.705 L2252.21 341.705 L2252.21 326.195 Q2252.21 322.515 2250.77 320.686 Q2249.34 318.858 2246.47 318.858 Q2243.02 318.858 2241.03 321.057 Q2239.04 323.256 2239.04 327.052 L2239.04 341.705 L2234.75 341.705 L2234.75 315.779 L2239.04 315.779 L2239.04 319.807 Q2240.57 317.469 2242.63 316.311 Q2244.71 315.154 2247.42 315.154 Q2251.88 315.154 2254.18 317.932 Q2256.47 320.686 2256.47 326.057 Z" fill="#000000" fill-rule="nonzero" fill-opacity="1" /></svg>
