<?xml version="1.0" encoding="utf-8"?>
<svg xmlns="http://www.w3.org/2000/svg" xmlns:xlink="http://www.w3.org/1999/xlink" width="600" height="400" viewBox="0 0 2400 1600">
<defs>
  <clipPath id="clip720">
    <rect x="0" y="0" width="2400" height="1600"/>
  </clipPath>
</defs>
<path clip-path="url(#clip720)" d="M0 1600 L2400 1600 L2400 8.88178e-14 L0 8.88178e-14  Z" fill="#ffffff" fill-rule="evenodd" fill-opacity="1"/>
<defs>
  <clipPath id="clip721">
    <rect x="480" y="0" width="1681" height="1600"/>
  </clipPath>
</defs>
<path clip-path="url(#clip720)" d="M186.274 1486.45 L2352.76 1486.45 L2352.76 123.472 L186.274 123.472  Z" fill="#ffffff" fill-rule="evenodd" fill-opacity="1"/>
<defs>
  <clipPath id="clip722">
    <rect x="186" y="123" width="2167" height="1364"/>
  </clipPath>
</defs>
<polyline clip-path="url(#clip722)" style="stroke:#000000; stroke-linecap:round; stroke-linejoin:round; stroke-width:2; stroke-opacity:0.1; fill:none" points="247.59,1486.45 247.59,123.472 "/>
<polyline clip-path="url(#clip722)" style="stroke:#000000; stroke-linecap:round; stroke-linejoin:round; stroke-width:2; stroke-opacity:0.1; fill:none" points="673.392,1486.45 673.392,123.472 "/>
<polyline clip-path="url(#clip722)" style="stroke:#000000; stroke-linecap:round; stroke-linejoin:round; stroke-width:2; stroke-opacity:0.1; fill:none" points="1099.19,1486.45 1099.19,123.472 "/>
<polyline clip-path="url(#clip722)" style="stroke:#000000; stroke-linecap:round; stroke-linejoin:round; stroke-width:2; stroke-opacity:0.1; fill:none" points="1525,1486.45 1525,123.472 "/>
<polyline clip-path="url(#clip722)" style="stroke:#000000; stroke-linecap:round; stroke-linejoin:round; stroke-width:2; stroke-opacity:0.1; fill:none" points="1950.8,1486.45 1950.8,123.472 "/>
<polyline clip-path="url(#clip722)" style="stroke:#000000; stroke-linecap:round; stroke-linejoin:round; stroke-width:2; stroke-opacity:0.1; fill:none" points="186.274,1447.87 2352.76,1447.87 "/>
<polyline clip-path="url(#clip722)" style="stroke:#000000; stroke-linecap:round; stroke-linejoin:round; stroke-width:2; stroke-opacity:0.1; fill:none" points="186.274,1126.42 2352.76,1126.42 "/>
<polyline clip-path="url(#clip722)" style="stroke:#000000; stroke-linecap:round; stroke-linejoin:round; stroke-width:2; stroke-opacity:0.1; fill:none" points="186.274,804.96 2352.76,804.96 "/>
<polyline clip-path="url(#clip722)" style="stroke:#000000; stroke-linecap:round; stroke-linejoin:round; stroke-width:2; stroke-opacity:0.1; fill:none" points="186.274,483.503 2352.76,483.503 "/>
<polyline clip-path="url(#clip722)" style="stroke:#000000; stroke-linecap:round; stroke-linejoin:round; stroke-width:2; stroke-opacity:0.1; fill:none" points="186.274,162.047 2352.76,162.047 "/>
<polyline clip-path="url(#clip720)" style="stroke:#000000; stroke-linecap:round; stroke-linejoin:round; stroke-width:4; stroke-opacity:1; fill:none" points="186.274,1486.45 2352.76,1486.45 "/>
<polyline clip-path="url(#clip720)" style="stroke:#000000; stroke-linecap:round; stroke-linejoin:round; stroke-width:4; stroke-opacity:1; fill:none" points="247.59,1486.45 247.59,1467.55 "/>
<polyline clip-path="url(#clip720)" style="stroke:#000000; stroke-linecap:round; stroke-linejoin:round; stroke-width:4; stroke-opacity:1; fill:none" points="673.392,1486.45 673.392,1467.55 "/>
<polyline clip-path="url(#clip720)" style="stroke:#000000; stroke-linecap:round; stroke-linejoin:round; stroke-width:4; stroke-opacity:1; fill:none" points="1099.19,1486.45 1099.19,1467.55 "/>
<polyline clip-path="url(#clip720)" style="stroke:#000000; stroke-linecap:round; stroke-linejoin:round; stroke-width:4; stroke-opacity:1; fill:none" points="1525,1486.45 1525,1467.55 "/>
<polyline clip-path="url(#clip720)" style="stroke:#000000; stroke-linecap:round; stroke-linejoin:round; stroke-width:4; stroke-opacity:1; fill:none" points="1950.8,1486.45 1950.8,1467.55 "/>
<path clip-path="url(#clip720)" d="M247.59 1517.37 Q243.978 1517.37 242.15 1520.93 Q240.344 1524.47 240.344 1531.6 Q240.344 1538.71 242.15 1542.27 Q243.978 1545.82 247.59 1545.82 Q251.224 1545.82 253.029 1542.27 Q254.858 1538.71 254.858 1531.6 Q254.858 1524.47 253.029 1520.93 Q251.224 1517.37 247.59 1517.37 M247.59 1513.66 Q253.4 1513.66 256.455 1518.27 Q259.534 1522.85 259.534 1531.6 Q259.534 1540.33 256.455 1544.94 Q253.4 1549.52 247.59 1549.52 Q241.779 1549.52 238.701 1544.94 Q235.645 1540.33 235.645 1531.6 Q235.645 1522.85 238.701 1518.27 Q241.779 1513.66 247.59 1513.66 Z" fill="#000000" fill-rule="nonzero" fill-opacity="1" /><path clip-path="url(#clip720)" d="M663.67 1514.29 L682.026 1514.29 L682.026 1518.22 L667.952 1518.22 L667.952 1526.7 Q668.971 1526.35 669.989 1526.19 Q671.008 1526 672.026 1526 Q677.813 1526 681.193 1529.17 Q684.572 1532.34 684.572 1537.76 Q684.572 1543.34 681.1 1546.44 Q677.628 1549.52 671.308 1549.52 Q669.133 1549.52 666.864 1549.15 Q664.619 1548.78 662.211 1548.04 L662.211 1543.34 Q664.295 1544.47 666.517 1545.03 Q668.739 1545.58 671.216 1545.58 Q675.22 1545.58 677.558 1543.48 Q679.896 1541.37 679.896 1537.76 Q679.896 1534.15 677.558 1532.04 Q675.22 1529.94 671.216 1529.94 Q669.341 1529.94 667.466 1530.35 Q665.614 1530.77 663.67 1531.65 L663.67 1514.29 Z" fill="#000000" fill-rule="nonzero" fill-opacity="1" /><path clip-path="url(#clip720)" d="M1073.88 1544.91 L1081.52 1544.91 L1081.52 1518.55 L1073.21 1520.21 L1073.21 1515.95 L1081.47 1514.29 L1086.15 1514.29 L1086.15 1544.91 L1093.79 1544.91 L1093.79 1548.85 L1073.88 1548.85 L1073.88 1544.91 Z" fill="#000000" fill-rule="nonzero" fill-opacity="1" /><path clip-path="url(#clip720)" d="M1113.23 1517.37 Q1109.62 1517.37 1107.79 1520.93 Q1105.99 1524.47 1105.99 1531.6 Q1105.99 1538.71 1107.79 1542.27 Q1109.62 1545.82 1113.23 1545.82 Q1116.87 1545.82 1118.67 1542.27 Q1120.5 1538.71 1120.5 1531.6 Q1120.5 1524.47 1118.67 1520.93 Q1116.87 1517.37 1113.23 1517.37 M1113.23 1513.66 Q1119.04 1513.66 1122.1 1518.27 Q1125.18 1522.85 1125.18 1531.6 Q1125.18 1540.33 1122.1 1544.94 Q1119.04 1549.52 1113.23 1549.52 Q1107.42 1549.52 1104.34 1544.94 Q1101.29 1540.33 1101.29 1531.6 Q1101.29 1522.85 1104.34 1518.27 Q1107.42 1513.66 1113.23 1513.66 Z" fill="#000000" fill-rule="nonzero" fill-opacity="1" /><path clip-path="url(#clip720)" d="M1500.18 1544.91 L1507.82 1544.91 L1507.82 1518.55 L1499.51 1520.21 L1499.51 1515.95 L1507.77 1514.29 L1512.45 1514.29 L1512.45 1544.91 L1520.09 1544.91 L1520.09 1548.85 L1500.18 1548.85 L1500.18 1544.91 Z" fill="#000000" fill-rule="nonzero" fill-opacity="1" /><path clip-path="url(#clip720)" d="M1529.58 1514.29 L1547.94 1514.29 L1547.94 1518.22 L1533.86 1518.22 L1533.86 1526.7 Q1534.88 1526.35 1535.9 1526.19 Q1536.92 1526 1537.94 1526 Q1543.72 1526 1547.1 1529.17 Q1550.48 1532.34 1550.48 1537.76 Q1550.48 1543.34 1547.01 1546.44 Q1543.54 1549.52 1537.22 1549.52 Q1535.04 1549.52 1532.77 1549.15 Q1530.53 1548.78 1528.12 1548.04 L1528.12 1543.34 Q1530.2 1544.47 1532.43 1545.03 Q1534.65 1545.58 1537.13 1545.58 Q1541.13 1545.58 1543.47 1543.48 Q1545.81 1541.37 1545.81 1537.76 Q1545.81 1534.15 1543.47 1532.04 Q1541.13 1529.94 1537.13 1529.94 Q1535.25 1529.94 1533.38 1530.35 Q1531.52 1530.77 1529.58 1531.65 L1529.58 1514.29 Z" fill="#000000" fill-rule="nonzero" fill-opacity="1" /><path clip-path="url(#clip720)" d="M1929.57 1544.91 L1945.89 1544.91 L1945.89 1548.85 L1923.95 1548.85 L1923.95 1544.91 Q1926.61 1542.16 1931.19 1537.53 Q1935.8 1532.88 1936.98 1531.53 Q1939.22 1529.01 1940.1 1527.27 Q1941.01 1525.51 1941.01 1523.82 Q1941.01 1521.07 1939.06 1519.33 Q1937.14 1517.6 1934.04 1517.6 Q1931.84 1517.6 1929.39 1518.36 Q1926.96 1519.13 1924.18 1520.68 L1924.18 1515.95 Q1927 1514.82 1929.46 1514.24 Q1931.91 1513.66 1933.95 1513.66 Q1939.32 1513.66 1942.51 1516.35 Q1945.71 1519.03 1945.71 1523.52 Q1945.71 1525.65 1944.9 1527.57 Q1944.11 1529.47 1942 1532.07 Q1941.42 1532.74 1938.32 1535.95 Q1935.22 1539.15 1929.57 1544.91 Z" fill="#000000" fill-rule="nonzero" fill-opacity="1" /><path clip-path="url(#clip720)" d="M1965.71 1517.37 Q1962.09 1517.37 1960.27 1520.93 Q1958.46 1524.47 1958.46 1531.6 Q1958.46 1538.71 1960.27 1542.27 Q1962.09 1545.82 1965.71 1545.82 Q1969.34 1545.82 1971.15 1542.27 Q1972.97 1538.71 1972.97 1531.6 Q1972.97 1524.47 1971.15 1520.93 Q1969.34 1517.37 1965.71 1517.37 M1965.71 1513.66 Q1971.52 1513.66 1974.57 1518.27 Q1977.65 1522.85 1977.65 1531.6 Q1977.65 1540.33 1974.57 1544.94 Q1971.52 1549.52 1965.71 1549.52 Q1959.9 1549.52 1956.82 1544.94 Q1953.76 1540.33 1953.76 1531.6 Q1953.76 1522.85 1956.82 1518.27 Q1959.9 1513.66 1965.71 1513.66 Z" fill="#000000" fill-rule="nonzero" fill-opacity="1" /><polyline clip-path="url(#clip720)" style="stroke:#000000; stroke-linecap:round; stroke-linejoin:round; stroke-width:4; stroke-opacity:1; fill:none" points="186.274,1486.45 186.274,123.472 "/>
<polyline clip-path="url(#clip720)" style="stroke:#000000; stroke-linecap:round; stroke-linejoin:round; stroke-width:4; stroke-opacity:1; fill:none" points="186.274,1447.87 205.172,1447.87 "/>
<polyline clip-path="url(#clip720)" style="stroke:#000000; stroke-linecap:round; stroke-linejoin:round; stroke-width:4; stroke-opacity:1; fill:none" points="186.274,1126.42 205.172,1126.42 "/>
<polyline clip-path="url(#clip720)" style="stroke:#000000; stroke-linecap:round; stroke-linejoin:round; stroke-width:4; stroke-opacity:1; fill:none" points="186.274,804.96 205.172,804.96 "/>
<polyline clip-path="url(#clip720)" style="stroke:#000000; stroke-linecap:round; stroke-linejoin:round; stroke-width:4; stroke-opacity:1; fill:none" points="186.274,483.503 205.172,483.503 "/>
<polyline clip-path="url(#clip720)" style="stroke:#000000; stroke-linecap:round; stroke-linejoin:round; stroke-width:4; stroke-opacity:1; fill:none" points="186.274,162.047 205.172,162.047 "/>
<path clip-path="url(#clip720)" d="M62.9365 1433.67 Q59.3254 1433.67 57.4967 1437.24 Q55.6912 1440.78 55.6912 1447.91 Q55.6912 1455.01 57.4967 1458.58 Q59.3254 1462.12 62.9365 1462.12 Q66.5707 1462.12 68.3763 1458.58 Q70.205 1455.01 70.205 1447.91 Q70.205 1440.78 68.3763 1437.24 Q66.5707 1433.67 62.9365 1433.67 M62.9365 1429.97 Q68.7467 1429.97 71.8022 1434.57 Q74.8809 1439.16 74.8809 1447.91 Q74.8809 1456.63 71.8022 1461.24 Q68.7467 1465.82 62.9365 1465.82 Q57.1264 1465.82 54.0477 1461.24 Q50.9921 1456.63 50.9921 1447.91 Q50.9921 1439.16 54.0477 1434.57 Q57.1264 1429.97 62.9365 1429.97 Z" fill="#000000" fill-rule="nonzero" fill-opacity="1" /><path clip-path="url(#clip720)" d="M83.0984 1459.27 L87.9827 1459.27 L87.9827 1465.15 L83.0984 1465.15 L83.0984 1459.27 Z" fill="#000000" fill-rule="nonzero" fill-opacity="1" /><path clip-path="url(#clip720)" d="M108.168 1433.67 Q104.557 1433.67 102.728 1437.24 Q100.922 1440.78 100.922 1447.91 Q100.922 1455.01 102.728 1458.58 Q104.557 1462.12 108.168 1462.12 Q111.802 1462.12 113.608 1458.58 Q115.436 1455.01 115.436 1447.91 Q115.436 1440.78 113.608 1437.24 Q111.802 1433.67 108.168 1433.67 M108.168 1429.97 Q113.978 1429.97 117.033 1434.57 Q120.112 1439.16 120.112 1447.91 Q120.112 1456.63 117.033 1461.24 Q113.978 1465.82 108.168 1465.82 Q102.358 1465.82 99.2789 1461.24 Q96.2234 1456.63 96.2234 1447.91 Q96.2234 1439.16 99.2789 1434.57 Q102.358 1429.97 108.168 1429.97 Z" fill="#000000" fill-rule="nonzero" fill-opacity="1" /><path clip-path="url(#clip720)" d="M138.33 1433.67 Q134.719 1433.67 132.89 1437.24 Q131.084 1440.78 131.084 1447.91 Q131.084 1455.01 132.89 1458.58 Q134.719 1462.12 138.33 1462.12 Q141.964 1462.12 143.769 1458.58 Q145.598 1455.01 145.598 1447.91 Q145.598 1440.78 143.769 1437.24 Q141.964 1433.67 138.33 1433.67 M138.33 1429.97 Q144.14 1429.97 147.195 1434.57 Q150.274 1439.16 150.274 1447.91 Q150.274 1456.63 147.195 1461.24 Q144.14 1465.82 138.33 1465.82 Q132.519 1465.82 129.441 1461.24 Q126.385 1456.63 126.385 1447.91 Q126.385 1439.16 129.441 1434.57 Q132.519 1429.97 138.33 1429.97 Z" fill="#000000" fill-rule="nonzero" fill-opacity="1" /><path clip-path="url(#clip720)" d="M63.9319 1112.22 Q60.3208 1112.22 58.4921 1115.78 Q56.6865 1119.32 56.6865 1126.45 Q56.6865 1133.56 58.4921 1137.12 Q60.3208 1140.66 63.9319 1140.66 Q67.5661 1140.66 69.3717 1137.12 Q71.2004 1133.56 71.2004 1126.45 Q71.2004 1119.32 69.3717 1115.78 Q67.5661 1112.22 63.9319 1112.22 M63.9319 1108.51 Q69.742 1108.51 72.7976 1113.12 Q75.8763 1117.7 75.8763 1126.45 Q75.8763 1135.18 72.7976 1139.78 Q69.742 1144.37 63.9319 1144.37 Q58.1217 1144.37 55.043 1139.78 Q51.9875 1135.18 51.9875 1126.45 Q51.9875 1117.7 55.043 1113.12 Q58.1217 1108.51 63.9319 1108.51 Z" fill="#000000" fill-rule="nonzero" fill-opacity="1" /><path clip-path="url(#clip720)" d="M84.0938 1137.82 L88.978 1137.82 L88.978 1143.7 L84.0938 1143.7 L84.0938 1137.82 Z" fill="#000000" fill-rule="nonzero" fill-opacity="1" /><path clip-path="url(#clip720)" d="M103.191 1139.76 L119.51 1139.76 L119.51 1143.7 L97.566 1143.7 L97.566 1139.76 Q100.228 1137.01 104.811 1132.38 Q109.418 1127.72 110.598 1126.38 Q112.844 1123.86 113.723 1122.12 Q114.626 1120.36 114.626 1118.67 Q114.626 1115.92 112.682 1114.18 Q110.76 1112.45 107.658 1112.45 Q105.459 1112.45 103.006 1113.21 Q100.575 1113.97 97.7974 1115.53 L97.7974 1110.8 Q100.621 1109.67 103.075 1109.09 Q105.529 1108.51 107.566 1108.51 Q112.936 1108.51 116.131 1111.2 Q119.325 1113.88 119.325 1118.37 Q119.325 1120.5 118.515 1122.42 Q117.728 1124.32 115.621 1126.91 Q115.043 1127.59 111.941 1130.8 Q108.839 1134 103.191 1139.76 Z" fill="#000000" fill-rule="nonzero" fill-opacity="1" /><path clip-path="url(#clip720)" d="M129.371 1109.14 L147.728 1109.14 L147.728 1113.07 L133.654 1113.07 L133.654 1121.54 Q134.672 1121.2 135.691 1121.03 Q136.709 1120.85 137.728 1120.85 Q143.515 1120.85 146.894 1124.02 Q150.274 1127.19 150.274 1132.61 Q150.274 1138.19 146.802 1141.29 Q143.33 1144.37 137.01 1144.37 Q134.834 1144.37 132.566 1144 Q130.32 1143.63 127.913 1142.89 L127.913 1138.19 Q129.996 1139.32 132.219 1139.88 Q134.441 1140.43 136.918 1140.43 Q140.922 1140.43 143.26 1138.33 Q145.598 1136.22 145.598 1132.61 Q145.598 1129 143.26 1126.89 Q140.922 1124.78 136.918 1124.78 Q135.043 1124.78 133.168 1125.2 Q131.316 1125.62 129.371 1126.5 L129.371 1109.14 Z" fill="#000000" fill-rule="nonzero" fill-opacity="1" /><path clip-path="url(#clip720)" d="M62.9365 790.759 Q59.3254 790.759 57.4967 794.323 Q55.6912 797.865 55.6912 804.995 Q55.6912 812.101 57.4967 815.666 Q59.3254 819.208 62.9365 819.208 Q66.5707 819.208 68.3763 815.666 Q70.205 812.101 70.205 804.995 Q70.205 797.865 68.3763 794.323 Q66.5707 790.759 62.9365 790.759 M62.9365 787.055 Q68.7467 787.055 71.8022 791.661 Q74.8809 796.245 74.8809 804.995 Q74.8809 813.722 71.8022 818.328 Q68.7467 822.911 62.9365 822.911 Q57.1264 822.911 54.0477 818.328 Q50.9921 813.722 50.9921 804.995 Q50.9921 796.245 54.0477 791.661 Q57.1264 787.055 62.9365 787.055 Z" fill="#000000" fill-rule="nonzero" fill-opacity="1" /><path clip-path="url(#clip720)" d="M83.0984 816.36 L87.9827 816.36 L87.9827 822.24 L83.0984 822.24 L83.0984 816.36 Z" fill="#000000" fill-rule="nonzero" fill-opacity="1" /><path clip-path="url(#clip720)" d="M98.2141 787.68 L116.57 787.68 L116.57 791.615 L102.496 791.615 L102.496 800.087 Q103.515 799.74 104.534 799.578 Q105.552 799.393 106.571 799.393 Q112.358 799.393 115.737 802.564 Q119.117 805.735 119.117 811.152 Q119.117 816.731 115.645 819.833 Q112.172 822.911 105.853 822.911 Q103.677 822.911 101.409 822.541 Q99.1632 822.171 96.7558 821.43 L96.7558 816.731 Q98.8391 817.865 101.061 818.421 Q103.284 818.976 105.76 818.976 Q109.765 818.976 112.103 816.87 Q114.441 814.763 114.441 811.152 Q114.441 807.541 112.103 805.435 Q109.765 803.328 105.76 803.328 Q103.885 803.328 102.01 803.745 Q100.159 804.161 98.2141 805.041 L98.2141 787.68 Z" fill="#000000" fill-rule="nonzero" fill-opacity="1" /><path clip-path="url(#clip720)" d="M138.33 790.759 Q134.719 790.759 132.89 794.323 Q131.084 797.865 131.084 804.995 Q131.084 812.101 132.89 815.666 Q134.719 819.208 138.33 819.208 Q141.964 819.208 143.769 815.666 Q145.598 812.101 145.598 804.995 Q145.598 797.865 143.769 794.323 Q141.964 790.759 138.33 790.759 M138.33 787.055 Q144.14 787.055 147.195 791.661 Q150.274 796.245 150.274 804.995 Q150.274 813.722 147.195 818.328 Q144.14 822.911 138.33 822.911 Q132.519 822.911 129.441 818.328 Q126.385 813.722 126.385 804.995 Q126.385 796.245 129.441 791.661 Q132.519 787.055 138.33 787.055 Z" fill="#000000" fill-rule="nonzero" fill-opacity="1" /><path clip-path="url(#clip720)" d="M63.9319 469.302 Q60.3208 469.302 58.4921 472.867 Q56.6865 476.409 56.6865 483.538 Q56.6865 490.645 58.4921 494.209 Q60.3208 497.751 63.9319 497.751 Q67.5661 497.751 69.3717 494.209 Q71.2004 490.645 71.2004 483.538 Q71.2004 476.409 69.3717 472.867 Q67.5661 469.302 63.9319 469.302 M63.9319 465.598 Q69.742 465.598 72.7976 470.205 Q75.8763 474.788 75.8763 483.538 Q75.8763 492.265 72.7976 496.871 Q69.742 501.455 63.9319 501.455 Q58.1217 501.455 55.043 496.871 Q51.9875 492.265 51.9875 483.538 Q51.9875 474.788 55.043 470.205 Q58.1217 465.598 63.9319 465.598 Z" fill="#000000" fill-rule="nonzero" fill-opacity="1" /><path clip-path="url(#clip720)" d="M84.0938 494.904 L88.978 494.904 L88.978 500.783 L84.0938 500.783 L84.0938 494.904 Z" fill="#000000" fill-rule="nonzero" fill-opacity="1" /><path clip-path="url(#clip720)" d="M97.9826 466.223 L120.205 466.223 L120.205 468.214 L107.658 500.783 L102.774 500.783 L114.58 470.159 L97.9826 470.159 L97.9826 466.223 Z" fill="#000000" fill-rule="nonzero" fill-opacity="1" /><path clip-path="url(#clip720)" d="M129.371 466.223 L147.728 466.223 L147.728 470.159 L133.654 470.159 L133.654 478.631 Q134.672 478.284 135.691 478.122 Q136.709 477.936 137.728 477.936 Q143.515 477.936 146.894 481.108 Q150.274 484.279 150.274 489.696 Q150.274 495.274 146.802 498.376 Q143.33 501.455 137.01 501.455 Q134.834 501.455 132.566 501.084 Q130.32 500.714 127.913 499.973 L127.913 495.274 Q129.996 496.408 132.219 496.964 Q134.441 497.52 136.918 497.52 Q140.922 497.52 143.26 495.413 Q145.598 493.307 145.598 489.696 Q145.598 486.084 143.26 483.978 Q140.922 481.872 136.918 481.872 Q135.043 481.872 133.168 482.288 Q131.316 482.705 129.371 483.584 L129.371 466.223 Z" fill="#000000" fill-rule="nonzero" fill-opacity="1" /><path clip-path="url(#clip720)" d="M53.7467 175.392 L61.3856 175.392 L61.3856 149.026 L53.0754 150.693 L53.0754 146.434 L61.3393 144.767 L66.0152 144.767 L66.0152 175.392 L73.654 175.392 L73.654 179.327 L53.7467 179.327 L53.7467 175.392 Z" fill="#000000" fill-rule="nonzero" fill-opacity="1" /><path clip-path="url(#clip720)" d="M83.0984 173.447 L87.9827 173.447 L87.9827 179.327 L83.0984 179.327 L83.0984 173.447 Z" fill="#000000" fill-rule="nonzero" fill-opacity="1" /><path clip-path="url(#clip720)" d="M108.168 147.846 Q104.557 147.846 102.728 151.41 Q100.922 154.952 100.922 162.082 Q100.922 169.188 102.728 172.753 Q104.557 176.295 108.168 176.295 Q111.802 176.295 113.608 172.753 Q115.436 169.188 115.436 162.082 Q115.436 154.952 113.608 151.41 Q111.802 147.846 108.168 147.846 M108.168 144.142 Q113.978 144.142 117.033 148.748 Q120.112 153.332 120.112 162.082 Q120.112 170.808 117.033 175.415 Q113.978 179.998 108.168 179.998 Q102.358 179.998 99.2789 175.415 Q96.2234 170.808 96.2234 162.082 Q96.2234 153.332 99.2789 148.748 Q102.358 144.142 108.168 144.142 Z" fill="#000000" fill-rule="nonzero" fill-opacity="1" /><path clip-path="url(#clip720)" d="M138.33 147.846 Q134.719 147.846 132.89 151.41 Q131.084 154.952 131.084 162.082 Q131.084 169.188 132.89 172.753 Q134.719 176.295 138.33 176.295 Q141.964 176.295 143.769 172.753 Q145.598 169.188 145.598 162.082 Q145.598 154.952 143.769 151.41 Q141.964 147.846 138.33 147.846 M138.33 144.142 Q144.14 144.142 147.195 148.748 Q150.274 153.332 150.274 162.082 Q150.274 170.808 147.195 175.415 Q144.14 179.998 138.33 179.998 Q132.519 179.998 129.441 175.415 Q126.385 170.808 126.385 162.082 Q126.385 153.332 129.441 148.748 Q132.519 144.142 138.33 144.142 Z" fill="#000000" fill-rule="nonzero" fill-opacity="1" /><path clip-path="url(#clip720)" d="M987.592 14.0809 L987.592 22.0612 Q982.934 19.8332 978.802 18.7395 Q974.67 17.6457 970.822 17.6457 Q964.138 17.6457 960.492 20.2383 Q956.886 22.8309 956.886 27.611 Q956.886 31.6214 959.276 33.6873 Q961.707 35.7128 968.431 36.9686 L973.374 37.9813 Q982.529 39.7232 986.863 44.1387 Q991.238 48.5136 991.238 55.8863 Q991.238 64.6767 985.324 69.2137 Q979.45 73.7508 968.067 73.7508 Q963.773 73.7508 958.912 72.7785 Q954.091 71.8063 948.906 69.9024 L948.906 61.4765 Q953.889 64.2716 958.669 65.6895 Q963.449 67.1073 968.067 67.1073 Q975.075 67.1073 978.883 64.3527 Q982.691 61.598 982.691 56.4939 Q982.691 52.0379 979.936 49.5264 Q977.222 47.0148 970.984 45.759 L966.001 44.7868 Q956.846 42.9639 952.754 39.075 Q948.663 35.1862 948.663 28.2591 Q948.663 20.2383 954.294 15.6203 Q959.965 11.0023 969.89 11.0023 Q974.143 11.0023 978.559 11.7719 Q982.974 12.5416 987.592 14.0809 Z" fill="#000000" fill-rule="nonzero" fill-opacity="1" /><path clip-path="url(#clip720)" d="M1011.05 14.324 L1011.05 27.2059 L1026.4 27.2059 L1026.4 32.9987 L1011.05 32.9987 L1011.05 57.6282 Q1011.05 63.1779 1012.55 64.7578 Q1014.09 66.3376 1018.74 66.3376 L1026.4 66.3376 L1026.4 72.576 L1018.74 72.576 Q1010.12 72.576 1006.83 69.3758 Q1003.55 66.1351 1003.55 57.6282 L1003.55 32.9987 L998.084 32.9987 L998.084 27.2059 L1003.55 27.2059 L1003.55 14.324 L1011.05 14.324 Z" fill="#000000" fill-rule="nonzero" fill-opacity="1" /><path clip-path="url(#clip720)" d="M1056.82 49.7694 Q1047.79 49.7694 1044.3 51.8354 Q1040.82 53.9013 1040.82 58.8839 Q1040.82 62.8538 1043.41 65.2034 Q1046.05 67.5124 1050.54 67.5124 Q1056.74 67.5124 1060.47 63.1374 Q1064.24 58.7219 1064.24 51.4303 L1064.24 49.7694 L1056.82 49.7694 M1071.69 46.6907 L1071.69 72.576 L1064.24 72.576 L1064.24 65.6895 Q1061.68 69.8214 1057.88 71.8063 Q1054.07 73.7508 1048.56 73.7508 Q1041.59 73.7508 1037.46 69.8619 Q1033.37 65.9325 1033.37 59.3701 Q1033.37 51.7138 1038.47 47.825 Q1043.62 43.9361 1053.78 43.9361 L1064.24 43.9361 L1064.24 43.2069 Q1064.24 38.0623 1060.83 35.2672 Q1057.47 32.4315 1051.35 32.4315 Q1047.46 32.4315 1043.78 33.3632 Q1040.09 34.295 1036.69 36.1584 L1036.69 29.2718 Q1040.78 27.692 1044.63 26.9223 Q1048.48 26.1121 1052.12 26.1121 Q1061.97 26.1121 1066.83 31.2163 Q1071.69 36.3204 1071.69 46.6907 Z" fill="#000000" fill-rule="nonzero" fill-opacity="1" /><path clip-path="url(#clip720)" d="M1094.41 14.324 L1094.41 27.2059 L1109.77 27.2059 L1109.77 32.9987 L1094.41 32.9987 L1094.41 57.6282 Q1094.41 63.1779 1095.91 64.7578 Q1097.45 66.3376 1102.11 66.3376 L1109.77 66.3376 L1109.77 72.576 L1102.11 72.576 Q1093.48 72.576 1090.2 69.3758 Q1086.92 66.1351 1086.92 57.6282 L1086.92 32.9987 L1081.45 32.9987 L1081.45 27.2059 L1086.92 27.2059 L1086.92 14.324 L1094.41 14.324 Z" fill="#000000" fill-rule="nonzero" fill-opacity="1" /><path clip-path="url(#clip720)" d="M1158.38 48.0275 L1158.38 51.6733 L1124.11 51.6733 Q1124.59 59.3701 1128.73 63.421 Q1132.9 67.4314 1140.31 67.4314 Q1144.61 67.4314 1148.62 66.3781 Q1152.67 65.3249 1156.64 63.2184 L1156.64 70.267 Q1152.63 71.9684 1148.41 72.8596 Q1144.2 73.7508 1139.87 73.7508 Q1129.01 73.7508 1122.65 67.4314 Q1116.33 61.1119 1116.33 50.3365 Q1116.33 39.1965 1122.33 32.6746 Q1128.36 26.1121 1138.57 26.1121 Q1147.72 26.1121 1153.03 32.0264 Q1158.38 37.9003 1158.38 48.0275 M1150.92 45.84 Q1150.84 39.7232 1147.48 36.0774 Q1144.16 32.4315 1138.65 32.4315 Q1132.41 32.4315 1128.64 35.9558 Q1124.92 39.4801 1124.35 45.8805 L1150.92 45.84 Z" fill="#000000" fill-rule="nonzero" fill-opacity="1" /><path clip-path="url(#clip720)" d="M1204.36 14.324 L1204.36 27.2059 L1219.71 27.2059 L1219.71 32.9987 L1204.36 32.9987 L1204.36 57.6282 Q1204.36 63.1779 1205.85 64.7578 Q1207.39 66.3376 1212.05 66.3376 L1219.71 66.3376 L1219.71 72.576 L1212.05 72.576 Q1203.42 72.576 1200.14 69.3758 Q1196.86 66.1351 1196.86 57.6282 L1196.86 32.9987 L1191.39 32.9987 L1191.39 27.2059 L1196.86 27.2059 L1196.86 14.324 L1204.36 14.324 Z" fill="#000000" fill-rule="nonzero" fill-opacity="1" /><path clip-path="url(#clip720)" d="M1255.8 34.1734 Q1254.55 33.4443 1253.05 33.1202 Q1251.59 32.7556 1249.81 32.7556 Q1243.49 32.7556 1240.09 36.8875 Q1236.72 40.9789 1236.72 48.6757 L1236.72 72.576 L1229.23 72.576 L1229.23 27.2059 L1236.72 27.2059 L1236.72 34.2544 Q1239.07 30.1225 1242.84 28.1376 Q1246.61 26.1121 1251.99 26.1121 Q1252.76 26.1121 1253.7 26.2337 Q1254.63 26.3147 1255.76 26.5172 L1255.8 34.1734 Z" fill="#000000" fill-rule="nonzero" fill-opacity="1" /><path clip-path="url(#clip720)" d="M1284.24 49.7694 Q1275.21 49.7694 1271.72 51.8354 Q1268.24 53.9013 1268.24 58.8839 Q1268.24 62.8538 1270.83 65.2034 Q1273.46 67.5124 1277.96 67.5124 Q1284.16 67.5124 1287.89 63.1374 Q1291.65 58.7219 1291.65 51.4303 L1291.65 49.7694 L1284.24 49.7694 M1299.11 46.6907 L1299.11 72.576 L1291.65 72.576 L1291.65 65.6895 Q1289.1 69.8214 1285.29 71.8063 Q1281.49 73.7508 1275.98 73.7508 Q1269.01 73.7508 1264.88 69.8619 Q1260.79 65.9325 1260.79 59.3701 Q1260.79 51.7138 1265.89 47.825 Q1271.03 43.9361 1281.2 43.9361 L1291.65 43.9361 L1291.65 43.2069 Q1291.65 38.0623 1288.25 35.2672 Q1284.89 32.4315 1278.77 32.4315 Q1274.88 32.4315 1271.2 33.3632 Q1267.51 34.295 1264.11 36.1584 L1264.11 29.2718 Q1268.2 27.692 1272.05 26.9223 Q1275.9 26.1121 1279.54 26.1121 Q1289.38 26.1121 1294.25 31.2163 Q1299.11 36.3204 1299.11 46.6907 Z" fill="#000000" fill-rule="nonzero" fill-opacity="1" /><path clip-path="url(#clip720)" d="M1314.46 27.2059 L1321.91 27.2059 L1321.91 73.3862 Q1321.91 82.0551 1318.59 85.944 Q1315.31 89.8329 1307.98 89.8329 L1305.14 89.8329 L1305.14 83.5134 L1307.13 83.5134 Q1311.38 83.5134 1312.92 81.5285 Q1314.46 79.5841 1314.46 73.3862 L1314.46 27.2059 M1314.46 9.54393 L1321.91 9.54393 L1321.91 18.9825 L1314.46 18.9825 L1314.46 9.54393 Z" fill="#000000" fill-rule="nonzero" fill-opacity="1" /><path clip-path="url(#clip720)" d="M1376.32 48.0275 L1376.32 51.6733 L1342.05 51.6733 Q1342.53 59.3701 1346.66 63.421 Q1350.84 67.4314 1358.25 67.4314 Q1362.54 67.4314 1366.55 66.3781 Q1370.61 65.3249 1374.58 63.2184 L1374.58 70.267 Q1370.56 71.9684 1366.35 72.8596 Q1362.14 73.7508 1357.8 73.7508 Q1346.95 73.7508 1340.59 67.4314 Q1334.27 61.1119 1334.27 50.3365 Q1334.27 39.1965 1340.26 32.6746 Q1346.3 26.1121 1356.51 26.1121 Q1365.66 26.1121 1370.97 32.0264 Q1376.32 37.9003 1376.32 48.0275 M1368.86 45.84 Q1368.78 39.7232 1365.42 36.0774 Q1362.1 32.4315 1356.59 32.4315 Q1350.35 32.4315 1346.58 35.9558 Q1342.86 39.4801 1342.29 45.8805 L1368.86 45.84 Z" fill="#000000" fill-rule="nonzero" fill-opacity="1" /><path clip-path="url(#clip720)" d="M1421.2 28.9478 L1421.2 35.9153 Q1418.04 34.1734 1414.84 33.3227 Q1411.68 32.4315 1408.44 32.4315 Q1401.19 32.4315 1397.18 37.0496 Q1393.17 41.6271 1393.17 49.9314 Q1393.17 58.2358 1397.18 62.8538 Q1401.19 67.4314 1408.44 67.4314 Q1411.68 67.4314 1414.84 66.5807 Q1418.04 65.6895 1421.2 63.9476 L1421.2 70.8341 Q1418.08 72.2924 1414.72 73.0216 Q1411.4 73.7508 1407.63 73.7508 Q1397.38 73.7508 1391.35 67.3098 Q1385.31 60.8689 1385.31 49.9314 Q1385.31 38.832 1391.39 32.472 Q1397.5 26.1121 1408.12 26.1121 Q1411.56 26.1121 1414.84 26.8413 Q1418.12 27.5299 1421.2 28.9478 Z" fill="#000000" fill-rule="nonzero" fill-opacity="1" /><path clip-path="url(#clip720)" d="M1441.54 14.324 L1441.54 27.2059 L1456.89 27.2059 L1456.89 32.9987 L1441.54 32.9987 L1441.54 57.6282 Q1441.54 63.1779 1443.04 64.7578 Q1444.57 66.3376 1449.23 66.3376 L1456.89 66.3376 L1456.89 72.576 L1449.23 72.576 Q1440.6 72.576 1437.32 69.3758 Q1434.04 66.1351 1434.04 57.6282 L1434.04 32.9987 L1428.57 32.9987 L1428.57 27.2059 L1434.04 27.2059 L1434.04 14.324 L1441.54 14.324 Z" fill="#000000" fill-rule="nonzero" fill-opacity="1" /><path clip-path="url(#clip720)" d="M1484.27 32.4315 Q1478.28 32.4315 1474.79 37.1306 Q1471.31 41.7891 1471.31 49.9314 Q1471.31 58.0738 1474.75 62.7728 Q1478.24 67.4314 1484.27 67.4314 Q1490.23 67.4314 1493.71 62.7323 Q1497.2 58.0333 1497.2 49.9314 Q1497.2 41.8701 1493.71 37.1711 Q1490.23 32.4315 1484.27 32.4315 M1484.27 26.1121 Q1494 26.1121 1499.55 32.4315 Q1505.1 38.7509 1505.1 49.9314 Q1505.1 61.0714 1499.55 67.4314 Q1494 73.7508 1484.27 73.7508 Q1474.51 73.7508 1468.96 67.4314 Q1463.45 61.0714 1463.45 49.9314 Q1463.45 38.7509 1468.96 32.4315 Q1474.51 26.1121 1484.27 26.1121 Z" fill="#000000" fill-rule="nonzero" fill-opacity="1" /><path clip-path="url(#clip720)" d="M1543.74 34.1734 Q1542.49 33.4443 1540.99 33.1202 Q1539.53 32.7556 1537.75 32.7556 Q1531.43 32.7556 1528.02 36.8875 Q1524.66 40.9789 1524.66 48.6757 L1524.66 72.576 L1517.17 72.576 L1517.17 27.2059 L1524.66 27.2059 L1524.66 34.2544 Q1527.01 30.1225 1530.78 28.1376 Q1534.55 26.1121 1539.93 26.1121 Q1540.7 26.1121 1541.63 26.2337 Q1542.57 26.3147 1543.7 26.5172 L1543.74 34.1734 Z" fill="#000000" fill-rule="nonzero" fill-opacity="1" /><path clip-path="url(#clip720)" d="M1570.44 76.7889 Q1567.28 84.8907 1564.28 87.3618 Q1561.28 89.8329 1556.26 89.8329 L1550.3 89.8329 L1550.3 83.5945 L1554.68 83.5945 Q1557.76 83.5945 1559.46 82.1361 Q1561.16 80.6778 1563.23 75.2496 L1564.56 71.8468 L1546.21 27.2059 L1554.11 27.2059 L1568.29 62.6918 L1582.47 27.2059 L1590.37 27.2059 L1570.44 76.7889 Z" fill="#000000" fill-rule="nonzero" fill-opacity="1" /><circle clip-path="url(#clip722)" cx="332.75" cy="162.047" r="14.4" fill="#009af9" fill-rule="evenodd" fill-opacity="1" stroke="#000000" stroke-opacity="1" stroke-width="3.2"/>
<circle clip-path="url(#clip722)" cx="417.91" cy="1447.87" r="14.4" fill="#009af9" fill-rule="evenodd" fill-opacity="1" stroke="#000000" stroke-opacity="1" stroke-width="3.2"/>
<circle clip-path="url(#clip722)" cx="503.071" cy="162.047" r="14.4" fill="#009af9" fill-rule="evenodd" fill-opacity="1" stroke="#000000" stroke-opacity="1" stroke-width="3.2"/>
<circle clip-path="url(#clip722)" cx="588.231" cy="162.047" r="14.4" fill="#009af9" fill-rule="evenodd" fill-opacity="1" stroke="#000000" stroke-opacity="1" stroke-width="3.2"/>
<circle clip-path="url(#clip722)" cx="673.392" cy="162.047" r="14.4" fill="#009af9" fill-rule="evenodd" fill-opacity="1" stroke="#000000" stroke-opacity="1" stroke-width="3.2"/>
<circle clip-path="url(#clip722)" cx="758.552" cy="1447.87" r="14.4" fill="#009af9" fill-rule="evenodd" fill-opacity="1" stroke="#000000" stroke-opacity="1" stroke-width="3.2"/>
<circle clip-path="url(#clip722)" cx="843.713" cy="162.047" r="14.4" fill="#009af9" fill-rule="evenodd" fill-opacity="1" stroke="#000000" stroke-opacity="1" stroke-width="3.2"/>
<circle clip-path="url(#clip722)" cx="928.873" cy="1447.87" r="14.4" fill="#009af9" fill-rule="evenodd" fill-opacity="1" stroke="#000000" stroke-opacity="1" stroke-width="3.2"/>
<circle clip-path="url(#clip722)" cx="1014.03" cy="162.047" r="14.4" fill="#009af9" fill-rule="evenodd" fill-opacity="1" stroke="#000000" stroke-opacity="1" stroke-width="3.2"/>
<circle clip-path="url(#clip722)" cx="1099.19" cy="1447.87" r="14.4" fill="#009af9" fill-rule="evenodd" fill-opacity="1" stroke="#000000" stroke-opacity="1" stroke-width="3.2"/>
<circle clip-path="url(#clip722)" cx="1184.35" cy="162.047" r="14.4" fill="#009af9" fill-rule="evenodd" fill-opacity="1" stroke="#000000" stroke-opacity="1" stroke-width="3.2"/>
<circle clip-path="url(#clip722)" cx="1269.51" cy="1447.87" r="14.4" fill="#009af9" fill-rule="evenodd" fill-opacity="1" stroke="#000000" stroke-opacity="1" stroke-width="3.2"/>
<circle clip-path="url(#clip722)" cx="1354.68" cy="162.047" r="14.4" fill="#009af9" fill-rule="evenodd" fill-opacity="1" stroke="#000000" stroke-opacity="1" stroke-width="3.2"/>
<circle clip-path="url(#clip722)" cx="1439.84" cy="162.047" r="14.4" fill="#009af9" fill-rule="evenodd" fill-opacity="1" stroke="#000000" stroke-opacity="1" stroke-width="3.2"/>
<circle clip-path="url(#clip722)" cx="1525" cy="162.047" r="14.4" fill="#009af9" fill-rule="evenodd" fill-opacity="1" stroke="#000000" stroke-opacity="1" stroke-width="3.2"/>
<circle clip-path="url(#clip722)" cx="1610.16" cy="162.047" r="14.4" fill="#009af9" fill-rule="evenodd" fill-opacity="1" stroke="#000000" stroke-opacity="1" stroke-width="3.2"/>
<circle clip-path="url(#clip722)" cx="1695.32" cy="162.047" r="14.4" fill="#009af9" fill-rule="evenodd" fill-opacity="1" stroke="#000000" stroke-opacity="1" stroke-width="3.2"/>
<circle clip-path="url(#clip722)" cx="1780.48" cy="1447.87" r="14.4" fill="#009af9" fill-rule="evenodd" fill-opacity="1" stroke="#000000" stroke-opacity="1" stroke-width="3.2"/>
<circle clip-path="url(#clip722)" cx="1865.64" cy="1447.87" r="14.4" fill="#009af9" fill-rule="evenodd" fill-opacity="1" stroke="#000000" stroke-opacity="1" stroke-width="3.2"/>
<circle clip-path="url(#clip722)" cx="1950.8" cy="162.047" r="14.4" fill="#009af9" fill-rule="evenodd" fill-opacity="1" stroke="#000000" stroke-opacity="1" stroke-width="3.2"/>
<circle clip-path="url(#clip722)" cx="2035.96" cy="1447.87" r="14.4" fill="#009af9" fill-rule="evenodd" fill-opacity="1" stroke="#000000" stroke-opacity="1" stroke-width="3.2"/>
<circle clip-path="url(#clip722)" cx="2121.12" cy="1447.87" r="14.4" fill="#009af9" fill-rule="evenodd" fill-opacity="1" stroke="#000000" stroke-opacity="1" stroke-width="3.2"/>
<circle clip-path="url(#clip722)" cx="2206.28" cy="1447.87" r="14.4" fill="#009af9" fill-rule="evenodd" fill-opacity="1" stroke="#000000" stroke-opacity="1" stroke-width="3.2"/>
<circle clip-path="url(#clip722)" cx="2291.44" cy="1447.87" r="14.4" fill="#009af9" fill-rule="evenodd" fill-opacity="1" stroke="#000000" stroke-opacity="1" stroke-width="3.2"/>
<polyline clip-path="url(#clip722)" style="stroke:#e26f46; stroke-linecap:round; stroke-linejoin:round; stroke-width:4; stroke-opacity:1; fill:none" points="332.75,804.96 417.91,665.094 503.071,823.314 588.231,696.825 673.392,603.479 758.552,533.732 843.713,684.868 928.873,597.229 1014.03,741.949 1099.19,643.308 1184.35,780.699 1269.51,675.427 1354.68,806.954 1439.84,697.518 1525,611.128 1610.16,543.515 1695.32,490.162 1780.48,447.478 1865.64,594.075 1950.8,741.639 2035.96,641.903 2121.12,780.636 2206.28,896.168 2291.44,987.016 "/>
<path clip-path="url(#clip720)" d="M1715 324.425 L2280.54 324.425 L2280.54 168.905 L1715 168.905  Z" fill="#ffffff" fill-rule="evenodd" fill-opacity="1"/>
<polyline clip-path="url(#clip720)" style="stroke:#000000; stroke-linecap:round; stroke-linejoin:round; stroke-width:4; stroke-opacity:1; fill:none" points="1715,324.425 2280.54,324.425 2280.54,168.905 1715,168.905 1715,324.425 "/>
<circle clip-path="url(#clip720)" cx="1811.29" cy="220.745" r="20.48" fill="#009af9" fill-rule="evenodd" fill-opacity="1" stroke="#000000" stroke-opacity="1" stroke-width="4.55111"/>
<path clip-path="url(#clip720)" d="M1907.58 227.793 L1907.58 212.099 L1911.84 212.099 L1911.84 227.631 Q1911.84 231.312 1913.28 233.164 Q1914.71 234.992 1917.58 234.992 Q1921.03 234.992 1923.02 232.793 Q1925.03 230.594 1925.03 226.798 L1925.03 212.099 L1929.29 212.099 L1929.29 238.025 L1925.03 238.025 L1925.03 234.043 Q1923.48 236.404 1921.42 237.562 Q1919.39 238.696 1916.68 238.696 Q1912.21 238.696 1909.9 235.918 Q1907.58 233.14 1907.58 227.793 M1918.3 211.474 L1918.3 211.474 Z" fill="#000000" fill-rule="nonzero" fill-opacity="1" /><path clip-path="url(#clip720)" d="M1953.14 212.099 L1957.4 212.099 L1957.4 238.025 L1953.14 238.025 L1953.14 212.099 M1953.14 202.006 L1957.4 202.006 L1957.4 207.4 L1953.14 207.4 L1953.14 202.006 Z" fill="#000000" fill-rule="nonzero" fill-opacity="1" /><path clip-path="url(#clip720)" d="M1987.86 222.377 L1987.86 238.025 L1983.6 238.025 L1983.6 222.515 Q1983.6 218.835 1982.16 217.006 Q1980.73 215.178 1977.86 215.178 Q1974.41 215.178 1972.42 217.377 Q1970.43 219.576 1970.43 223.372 L1970.43 238.025 L1966.15 238.025 L1966.15 212.099 L1970.43 212.099 L1970.43 216.127 Q1971.96 213.789 1974.02 212.631 Q1976.1 211.474 1978.81 211.474 Q1983.27 211.474 1985.57 214.252 Q1987.86 217.006 1987.86 222.377 Z" fill="#000000" fill-rule="nonzero" fill-opacity="1" /><path clip-path="url(#clip720)" d="M2000.47 234.136 L2000.47 247.886 L1996.19 247.886 L1996.19 212.099 L2000.47 212.099 L2000.47 216.034 Q2001.82 213.719 2003.85 212.608 Q2005.91 211.474 2008.76 211.474 Q2013.48 211.474 2016.42 215.224 Q2019.39 218.974 2019.39 225.085 Q2019.39 231.196 2016.42 234.946 Q2013.48 238.696 2008.76 238.696 Q2005.91 238.696 2003.85 237.585 Q2001.82 236.451 2000.47 234.136 M2014.96 225.085 Q2014.96 220.386 2013.02 217.724 Q2011.1 215.039 2007.72 215.039 Q2004.34 215.039 2002.4 217.724 Q2000.47 220.386 2000.47 225.085 Q2000.47 229.784 2002.4 232.469 Q2004.34 235.131 2007.72 235.131 Q2011.1 235.131 2013.02 232.469 Q2014.96 229.784 2014.96 225.085 Z" fill="#000000" fill-rule="nonzero" fill-opacity="1" /><path clip-path="url(#clip720)" d="M2026.01 227.793 L2026.01 212.099 L2030.27 212.099 L2030.27 227.631 Q2030.27 231.312 2031.7 233.164 Q2033.14 234.992 2036.01 234.992 Q2039.46 234.992 2041.45 232.793 Q2043.46 230.594 2043.46 226.798 L2043.46 212.099 L2047.72 212.099 L2047.72 238.025 L2043.46 238.025 L2043.46 234.043 Q2041.91 236.404 2039.85 237.562 Q2037.81 238.696 2035.1 238.696 Q2030.64 238.696 2028.32 235.918 Q2026.01 233.14 2026.01 227.793 M2036.72 211.474 L2036.72 211.474 Z" fill="#000000" fill-rule="nonzero" fill-opacity="1" /><path clip-path="url(#clip720)" d="M2060.7 204.738 L2060.7 212.099 L2069.48 212.099 L2069.48 215.409 L2060.7 215.409 L2060.7 229.483 Q2060.7 232.654 2061.56 233.557 Q2062.44 234.46 2065.1 234.46 L2069.48 234.46 L2069.48 238.025 L2065.1 238.025 Q2060.17 238.025 2058.3 236.196 Q2056.42 234.344 2056.42 229.483 L2056.42 215.409 L2053.3 215.409 L2053.3 212.099 L2056.42 212.099 L2056.42 204.738 L2060.7 204.738 Z" fill="#000000" fill-rule="nonzero" fill-opacity="1" /><path clip-path="url(#clip720)" d="M2094.78 245.895 L2094.78 249.205 L2070.15 249.205 L2070.15 245.895 L2094.78 245.895 Z" fill="#000000" fill-rule="nonzero" fill-opacity="1" /><path clip-path="url(#clip720)" d="M2095.73 212.099 L2100.24 212.099 L2108.34 233.858 L2116.45 212.099 L2120.96 212.099 L2111.24 238.025 L2105.45 238.025 L2095.73 212.099 Z" fill="#000000" fill-rule="nonzero" fill-opacity="1" /><path clip-path="url(#clip720)" d="M2138.62 224.992 Q2133.46 224.992 2131.47 226.173 Q2129.48 227.353 2129.48 230.201 Q2129.48 232.469 2130.96 233.812 Q2132.46 235.131 2135.03 235.131 Q2138.57 235.131 2140.7 232.631 Q2142.86 230.108 2142.86 225.941 L2142.86 224.992 L2138.62 224.992 M2147.12 223.233 L2147.12 238.025 L2142.86 238.025 L2142.86 234.089 Q2141.4 236.451 2139.22 237.585 Q2137.05 238.696 2133.9 238.696 Q2129.92 238.696 2127.56 236.474 Q2125.22 234.228 2125.22 230.478 Q2125.22 226.103 2128.14 223.881 Q2131.07 221.659 2136.89 221.659 L2142.86 221.659 L2142.86 221.242 Q2142.86 218.303 2140.91 216.705 Q2138.99 215.085 2135.5 215.085 Q2133.27 215.085 2131.17 215.617 Q2129.06 216.15 2127.12 217.215 L2127.12 213.279 Q2129.45 212.377 2131.65 211.937 Q2133.85 211.474 2135.94 211.474 Q2141.56 211.474 2144.34 214.391 Q2147.12 217.307 2147.12 223.233 Z" fill="#000000" fill-rule="nonzero" fill-opacity="1" /><path clip-path="url(#clip720)" d="M2155.89 202.006 L2160.15 202.006 L2160.15 238.025 L2155.89 238.025 L2155.89 202.006 Z" fill="#000000" fill-rule="nonzero" fill-opacity="1" /><path clip-path="url(#clip720)" d="M2168.62 227.793 L2168.62 212.099 L2172.88 212.099 L2172.88 227.631 Q2172.88 231.312 2174.32 233.164 Q2175.75 234.992 2178.62 234.992 Q2182.07 234.992 2184.06 232.793 Q2186.07 230.594 2186.07 226.798 L2186.07 212.099 L2190.33 212.099 L2190.33 238.025 L2186.07 238.025 L2186.07 234.043 Q2184.52 236.404 2182.46 237.562 Q2180.43 238.696 2177.72 238.696 Q2173.25 238.696 2170.94 235.918 Q2168.62 233.14 2168.62 227.793 M2179.34 211.474 L2179.34 211.474 Z" fill="#000000" fill-rule="nonzero" fill-opacity="1" /><path clip-path="url(#clip720)" d="M2221.28 223.997 L2221.28 226.08 L2201.7 226.08 Q2201.98 230.478 2204.34 232.793 Q2206.72 235.085 2210.96 235.085 Q2213.41 235.085 2215.7 234.483 Q2218.02 233.881 2220.29 232.677 L2220.29 236.705 Q2218 237.677 2215.59 238.187 Q2213.18 238.696 2210.7 238.696 Q2204.5 238.696 2200.87 235.085 Q2197.26 231.474 2197.26 225.316 Q2197.26 218.951 2200.68 215.224 Q2204.13 211.474 2209.96 211.474 Q2215.19 211.474 2218.23 214.853 Q2221.28 218.21 2221.28 223.997 M2217.02 222.747 Q2216.98 219.252 2215.06 217.168 Q2213.16 215.085 2210.01 215.085 Q2206.44 215.085 2204.29 217.099 Q2202.16 219.113 2201.84 222.77 L2217.02 222.747 Z" fill="#000000" fill-rule="nonzero" fill-opacity="1" /><polyline clip-path="url(#clip720)" style="stroke:#e26f46; stroke-linecap:round; stroke-linejoin:round; stroke-width:4; stroke-opacity:1; fill:none" points="1739.08,272.585 1883.51,272.585 "/>
<path clip-path="url(#clip720)" d="M1932.23 263.939 L1922.86 276.555 L1932.72 289.865 L1927.7 289.865 L1920.15 279.68 L1912.6 289.865 L1907.58 289.865 L1917.65 276.3 L1908.44 263.939 L1913.46 263.939 L1920.34 273.175 L1927.21 263.939 L1932.23 263.939 Z" fill="#000000" fill-rule="nonzero" fill-opacity="1" /><path clip-path="url(#clip720)" d="M1957.35 276.925 Q1957.35 272.226 1955.4 269.564 Q1953.48 266.879 1950.1 266.879 Q1946.72 266.879 1944.78 269.564 Q1942.86 272.226 1942.86 276.925 Q1942.86 281.624 1944.78 284.309 Q1946.72 286.971 1950.1 286.971 Q1953.48 286.971 1955.4 284.309 Q1957.35 281.624 1957.35 276.925 M1942.86 267.874 Q1944.2 265.559 1946.24 264.448 Q1948.3 263.314 1951.15 263.314 Q1955.87 263.314 1958.81 267.064 Q1961.77 270.814 1961.77 276.925 Q1961.77 283.036 1958.81 286.786 Q1955.87 290.536 1951.15 290.536 Q1948.3 290.536 1946.24 289.425 Q1944.2 288.291 1942.86 285.976 L1942.86 289.865 L1938.58 289.865 L1938.58 253.846 L1942.86 253.846 L1942.86 267.874 Z" fill="#000000" fill-rule="nonzero" fill-opacity="1" /><path clip-path="url(#clip720)" d="M1968.83 263.939 L1973.09 263.939 L1973.09 289.865 L1968.83 289.865 L1968.83 263.939 M1968.83 253.846 L1973.09 253.846 L1973.09 259.24 L1968.83 259.24 L1968.83 253.846 Z" fill="#000000" fill-rule="nonzero" fill-opacity="1" /><path clip-path="url(#clip720)" d="M2003.55 274.217 L2003.55 289.865 L1999.29 289.865 L1999.29 274.355 Q1999.29 270.675 1997.86 268.846 Q1996.42 267.018 1993.55 267.018 Q1990.1 267.018 1988.11 269.217 Q1986.12 271.416 1986.12 275.212 L1986.12 289.865 L1981.84 289.865 L1981.84 263.939 L1986.12 263.939 L1986.12 267.967 Q1987.65 265.629 1989.71 264.471 Q1991.79 263.314 1994.5 263.314 Q1998.97 263.314 2001.26 266.092 Q2003.55 268.846 2003.55 274.217 Z" fill="#000000" fill-rule="nonzero" fill-opacity="1" /><path clip-path="url(#clip720)" d="M2031.24 285.976 L2031.24 299.726 L2026.96 299.726 L2026.96 263.939 L2031.24 263.939 L2031.24 267.874 Q2032.58 265.559 2034.62 264.448 Q2036.68 263.314 2039.52 263.314 Q2044.25 263.314 2047.19 267.064 Q2050.15 270.814 2050.15 276.925 Q2050.15 283.036 2047.19 286.786 Q2044.25 290.536 2039.52 290.536 Q2036.68 290.536 2034.62 289.425 Q2032.58 288.291 2031.24 285.976 M2045.73 276.925 Q2045.73 272.226 2043.78 269.564 Q2041.86 266.879 2038.48 266.879 Q2035.1 266.879 2033.16 269.564 Q2031.24 272.226 2031.24 276.925 Q2031.24 281.624 2033.16 284.309 Q2035.1 286.971 2038.48 286.971 Q2041.86 286.971 2043.78 284.309 Q2045.73 281.624 2045.73 276.925 Z" fill="#000000" fill-rule="nonzero" fill-opacity="1" /><path clip-path="url(#clip720)" d="M2072.23 267.92 Q2071.52 267.504 2070.66 267.318 Q2069.83 267.11 2068.81 267.11 Q2065.2 267.11 2063.25 269.471 Q2061.33 271.809 2061.33 276.207 L2061.33 289.865 L2057.05 289.865 L2057.05 263.939 L2061.33 263.939 L2061.33 267.967 Q2062.67 265.606 2064.83 264.471 Q2066.98 263.314 2070.06 263.314 Q2070.5 263.314 2071.03 263.383 Q2071.56 263.43 2072.21 263.545 L2072.23 267.92 Z" fill="#000000" fill-rule="nonzero" fill-opacity="1" /><path clip-path="url(#clip720)" d="M2097.83 275.837 L2097.83 277.92 L2078.25 277.92 Q2078.53 282.318 2080.89 284.633 Q2083.27 286.925 2087.51 286.925 Q2089.96 286.925 2092.26 286.323 Q2094.57 285.721 2096.84 284.517 L2096.84 288.545 Q2094.55 289.517 2092.14 290.027 Q2089.73 290.536 2087.26 290.536 Q2081.05 290.536 2077.42 286.925 Q2073.81 283.314 2073.81 277.156 Q2073.81 270.791 2077.23 267.064 Q2080.68 263.314 2086.52 263.314 Q2091.75 263.314 2094.78 266.693 Q2097.83 270.05 2097.83 275.837 M2093.58 274.587 Q2093.53 271.092 2091.61 269.008 Q2089.71 266.925 2086.56 266.925 Q2083 266.925 2080.84 268.939 Q2078.71 270.953 2078.39 274.61 L2093.58 274.587 Z" fill="#000000" fill-rule="nonzero" fill-opacity="1" /><path clip-path="url(#clip720)" d="M2121.89 267.874 L2121.89 253.846 L2126.14 253.846 L2126.14 289.865 L2121.89 289.865 L2121.89 285.976 Q2120.54 288.291 2118.48 289.425 Q2116.45 290.536 2113.58 290.536 Q2108.88 290.536 2105.91 286.786 Q2102.97 283.036 2102.97 276.925 Q2102.97 270.814 2105.91 267.064 Q2108.88 263.314 2113.58 263.314 Q2116.45 263.314 2118.48 264.448 Q2120.54 265.559 2121.89 267.874 M2107.37 276.925 Q2107.37 281.624 2109.29 284.309 Q2111.24 286.971 2114.62 286.971 Q2118 286.971 2119.94 284.309 Q2121.89 281.624 2121.89 276.925 Q2121.89 272.226 2119.94 269.564 Q2118 266.879 2114.62 266.879 Q2111.24 266.879 2109.29 269.564 Q2107.37 272.226 2107.37 276.925 Z" fill="#000000" fill-rule="nonzero" fill-opacity="1" /><path clip-path="url(#clip720)" d="M2134.92 263.939 L2139.18 263.939 L2139.18 289.865 L2134.92 289.865 L2134.92 263.939 M2134.92 253.846 L2139.18 253.846 L2139.18 259.24 L2134.92 259.24 L2134.92 253.846 Z" fill="#000000" fill-rule="nonzero" fill-opacity="1" /><path clip-path="url(#clip720)" d="M2166.75 264.934 L2166.75 268.916 Q2164.94 267.92 2163.11 267.434 Q2161.31 266.925 2159.45 266.925 Q2155.31 266.925 2153.02 269.564 Q2150.73 272.18 2150.73 276.925 Q2150.73 281.67 2153.02 284.309 Q2155.31 286.925 2159.45 286.925 Q2161.31 286.925 2163.11 286.439 Q2164.94 285.929 2166.75 284.934 L2166.75 288.869 Q2164.96 289.703 2163.04 290.119 Q2161.14 290.536 2158.99 290.536 Q2153.14 290.536 2149.69 286.855 Q2146.24 283.175 2146.24 276.925 Q2146.24 270.582 2149.71 266.948 Q2153.2 263.314 2159.27 263.314 Q2161.24 263.314 2163.11 263.731 Q2164.99 264.124 2166.75 264.934 Z" fill="#000000" fill-rule="nonzero" fill-opacity="1" /><path clip-path="url(#clip720)" d="M2178.37 256.578 L2178.37 263.939 L2187.14 263.939 L2187.14 267.249 L2178.37 267.249 L2178.37 281.323 Q2178.37 284.494 2179.22 285.397 Q2180.1 286.3 2182.76 286.3 L2187.14 286.3 L2187.14 289.865 L2182.76 289.865 Q2177.83 289.865 2175.96 288.036 Q2174.08 286.184 2174.08 281.323 L2174.08 267.249 L2170.96 267.249 L2170.96 263.939 L2174.08 263.939 L2174.08 256.578 L2178.37 256.578 Z" fill="#000000" fill-rule="nonzero" fill-opacity="1" /><path clip-path="url(#clip720)" d="M2192.74 263.939 L2197 263.939 L2197 289.865 L2192.74 289.865 L2192.74 263.939 M2192.74 253.846 L2197 253.846 L2197 259.24 L2192.74 259.24 L2192.74 253.846 Z" fill="#000000" fill-rule="nonzero" fill-opacity="1" /><path clip-path="url(#clip720)" d="M2215.96 266.925 Q2212.53 266.925 2210.54 269.61 Q2208.55 272.272 2208.55 276.925 Q2208.55 281.578 2210.52 284.263 Q2212.51 286.925 2215.96 286.925 Q2219.36 286.925 2221.35 284.24 Q2223.34 281.555 2223.34 276.925 Q2223.34 272.318 2221.35 269.633 Q2219.36 266.925 2215.96 266.925 M2215.96 263.314 Q2221.51 263.314 2224.69 266.925 Q2227.86 270.536 2227.86 276.925 Q2227.86 283.291 2224.69 286.925 Q2221.51 290.536 2215.96 290.536 Q2210.38 290.536 2207.21 286.925 Q2204.06 283.291 2204.06 276.925 Q2204.06 270.536 2207.21 266.925 Q2210.38 263.314 2215.96 263.314 Z" fill="#000000" fill-rule="nonzero" fill-opacity="1" /><path clip-path="url(#clip720)" d="M2256.47 274.217 L2256.47 289.865 L2252.21 289.865 L2252.21 274.355 Q2252.21 270.675 2250.77 268.846 Q2249.34 267.018 2246.47 267.018 Q2243.02 267.018 2241.03 269.217 Q2239.04 271.416 2239.04 275.212 L2239.04 289.865 L2234.75 289.865 L2234.75 263.939 L2239.04 263.939 L2239.04 267.967 Q2240.57 265.629 2242.63 264.471 Q2244.71 263.314 2247.42 263.314 Q2251.88 263.314 2254.18 266.092 Q2256.47 268.846 2256.47 274.217 Z" fill="#000000" fill-rule="nonzero" fill-opacity="1" /></svg>
