<?xml version="1.0" encoding="UTF-8" standalone="no"?>
<!-- Created with Inkscape (http://www.inkscape.org/) -->

<svg
   version="1.1"
   id="svg1"
   width="1920"
   height="1920"
   viewBox="0 0 1920 1920"
   sodipodi:docname="Julia_Revised_Logo_white.svg"
   inkscape:version="1.4.2 (ebf0e940, 2025-05-08)"
   xml:space="preserve"
   xmlns:inkscape="http://www.inkscape.org/namespaces/inkscape"
   xmlns:sodipodi="http://sodipodi.sourceforge.net/DTD/sodipodi-0.dtd"
   xmlns="http://www.w3.org/2000/svg"
   xmlns:svg="http://www.w3.org/2000/svg"><defs
     id="defs1" /><sodipodi:namedview
     id="namedview1"
     pagecolor="#505050"
     bordercolor="#eeeeee"
     borderopacity="1"
     inkscape:showpageshadow="0"
     inkscape:pageopacity="0"
     inkscape:pagecheckerboard="0"
     inkscape:deskcolor="#505050"
     inkscape:zoom="0.42"
     inkscape:cx="870.2381"
     inkscape:cy="661.90476"
     inkscape:window-width="1088"
     inkscape:window-height="1867"
     inkscape:window-x="0"
     inkscape:window-y="25"
     inkscape:window-maximized="0"
     inkscape:current-layer="g1" /><g
     inkscape:groupmode="layer"
     inkscape:label="Image"
     id="g1"><path
       style="fill:#30921f;fill-opacity:1"
       d="m 1301.2672,529.0337 c -16.159,-1.4962 -28.301,-11.7388 -33.018,-27.853 -1.3271,-4.5335 -1.4982,-14.4531 -1.2589,-73 l 0.2769,-67.7535 2.3206,-5.7467 c 4.6877,-11.6085 16.2797,-20.7278 28.9955,-22.8107 7.2659,-1.1901 122.6485,-1.1968 130.8693,-0.01 12.0918,1.7493 24.0294,10.3529 28.4068,20.4731 4.4943,10.3908 4.8685,16.3922 4.8685,78.0919 0,61.7009 -0.3842,67.8764 -4.8525,78 -3.6131,8.1859 -11.623,15.3785 -21.3316,19.155 -3.8008,1.4785 -11.174,1.6878 -66.2766,1.8816 -34.1,0.1199 -65.15,-0.074 -69,-0.4301 z"
       id="path1-38-3"
       sodipodi:nodetypes="csscsscssssscc" /><path
       style="fill:#6883dd;fill-opacity:1"
       d="m 725.5752,699.4318 c -12.9447,-21.8146 -32.9338,-50.0659 -45.4499,-64.2359 -3.6344,-4.1147 -6.6081,-7.981 -6.6081,-8.5917 0,-0.6107 1.7985,-1.6493 3.9966,-2.3078 12.9977,-3.8942 39.0108,-19.6774 56.4933,-34.2768 10.8143,-9.0308 110.8461,-109.1861 119.6946,-119.8424 17.6714,-21.2815 27.6178,-39.8043 38.3279,-71.3763 l 4.4876,-13.2291 0.011,-51.4473 c 0.012,-55.4495 0.088,-56.3659 5.4091,-65.3628 5.4832,-9.2702 15.8077,-16.0456 26.8947,-17.6495 7.8886,-1.1412 120.9872,-1.1532 129.8182,-0.014 12.4104,1.6013 24.4856,10.1437 28.9594,20.4869 4.4943,10.3908 4.8685,16.3922 4.8685,78.0919 0,61.7065 -0.3843,67.881 -4.8544,78 -2.4664,5.5832 -6.5707,10.2763 -12.7308,14.5571 -8.933,6.2078 -8.1184,6.1216 -64.3755,6.8151 l -51.5,0.6349 -12.5,6.375 c -48.5276,24.7493 -99.6018,68.7123 -143.614,123.6179 -41.5115,51.7861 -62.4574,86.5259 -69.8844,115.9065 -1.254,4.9608 -2.6735,9.1508 -3.1544,9.3111 -0.481,0.1603 -2.4111,-2.2981 -4.2892,-5.4631 z"
       id="path1-38-7"
       sodipodi:nodetypes="ssssssscssssssssscssssss" /><path
       style="fill:#cc4138;fill-opacity:1"
       d="m 866.523,963.6573 c -1.4435,-3.1515 -5.6919,-11.5801 -9.441,-18.7301 -18.9663,-36.1711 -24.1898,-46.3598 -24.1898,-47.1836 0,-0.4957 3.9303,-2.6713 8.7341,-4.8348 21.3808,-9.6294 43.7652,-25.3795 73.5443,-51.7469 74.636,-66.0852 84.8373,-75.8995 100.0293,-96.2347 12.1678,-16.2871 15.8377,-29.0546 14.0778,-48.9767 -1.2591,-14.2524 -0.9796,-35.9815 0.5533,-43.0233 8.5677,-39.3567 34.1343,-70.1253 70.0631,-84.3186 20.4252,-8.0689 38.9222,-9.9073 61.6115,-6.1236 44.5278,7.4254 79.8563,40.4318 91.4535,85.4422 1.9539,7.5834 2.326,11.597 2.3641,25.5 0.027,9.9568 -0.4696,18.8793 -1.2531,22.5 -10.5893,48.9331 -46.2187,83.0967 -95.0219,91.1128 -12.4015,2.037 -32.9135,1.3477 -45.656,-1.5344 -18.3121,-4.1417 -28.0945,-5.2867 -41.7934,-4.8919 -13.0351,0.3756 -13.304,0.4306 -20.7066,4.2318 -29.942,15.3751 -52.7711,32.5362 -83.8544,63.0349 -19.6259,19.2567 -30.5601,31.5248 -51.7358,58.0468 -22.5355,28.2252 -32.0367,41.2386 -40.3516,55.268 -2.3691,3.9975 -4.644,7.476 -5.0552,7.7302 -0.4112,0.2541 -1.9287,-2.1165 -3.3722,-5.2681 z"
       id="path1-38-8"
       sodipodi:nodetypes="ssssssssssssssssssssss" /><path
       style="fill:#9456b1;fill-opacity:1"
       d="m 1283.0334,983.1323 c -7.1882,-6.0717 -30.8243,-23.426 -40.6281,-29.8301 -5.0518,-3.3 -9.1798,-6.45 -9.1733,-7 0.01,-0.55 2.1369,-2.0698 4.7343,-3.3774 11.2704,-5.6736 39.9256,-26.1837 57.7494,-41.3344 17.2637,-14.6746 41.9576,-41.1294 57.2087,-61.2882 4.9229,-6.507 6.4244,-9.556 9.6032,-19.5 1.9861,-6.2132 2.1017,-9.2793 2.6195,-69.5 0.5415,-62.9804 0.5424,-63.0018 2.8623,-68.7467 4.7852,-11.8498 16.5654,-20.9473 29.559,-22.8275 8.0123,-1.1593 122.2837,-1.1513 130.3058,0.01 17.4022,2.5175 29.1774,14.9826 32.2569,34.1469 1.6374,10.1895 1.3792,120.3723 -0.3044,129.9181 -2.3372,13.2511 -7.4349,21.5535 -17.0022,27.6906 -8.5283,5.4706 -8.9512,5.5184 -56.1357,6.3442 -48.2085,0.8436 -50.268,1.0757 -71.1286,8.0133 -10.6713,3.549 -15.3115,6.2183 -34.0104,19.5647 -19.3164,13.7871 -27.1335,20.1735 -40.2307,32.8675 -18.7209,18.1448 -33.2213,36.2231 -45.1796,56.3275 -3.9885,6.7057 -7.5916,12.1922 -8.0067,12.1922 -0.4151,0 -2.7098,-1.6514 -5.0994,-3.6698 z"
       id="path1-38-6"
       sodipodi:nodetypes="sscssssssscsssssssssss" /><path
       style="fill:#ffffff"
       d="m 1312.8179,1311.8759 c -36.3844,-1.7972 -83.3718,-12.1226 -118.9065,-26.1295 -20.2208,-7.9707 -54.7723,-26.52 -84,-45.0963 -27.4087,-17.4202 -61.7019,-43.4583 -86.0535,-65.3385 -15.9654,-14.345 -53.05267,-51.101 -64.79797,-64.219 -10.9307,-12.2082 -27.6485,-33.8631 -27.6485,-35.8137 0,-1.3914 7.5671,-8.1527 10.5,-9.3818 3.1492,-1.3198 19.979,-16.3869 48.0874,-43.0509 29.78257,-28.2521 36.90707,-34.5482 52.16837,-46.1023 20.848,-15.7838 42.5062,-26.3898 64.4969,-31.5842 10.0158,-2.3659 13.2729,-2.6599 29.7473,-2.6855 15.7428,-0.024 20.0438,0.3157 28.8584,2.2816 32.0789,7.1547 62.7669,22.9587 98.1416,50.5418 16.1332,12.5798 31.4076,26.1105 58.7695,52.0607 12.7982,12.1379 30.5732,28.9827 39.5,37.4328 46.442,43.9623 69.0466,57.4226 95.7781,73.1996 7.1338,4.2104 33.4336,13.4373 46.5702,17.5496 15.7713,4.937 32.7593,7.0206 32.7593,7.0206 10.8894,3.5373 -18.0721,52.0247 -36.5194,73.2116 -6.9437,7.9749 -26.3278,18.3746 -61.3577,32.9189 -24.159,10.0307 -53.7216,18.6019 -73,21.1651 -24.0325,3.1953 -27.0001,3.3082 -53.0935,2.0194 z"
       id="path1-38-39"
       sodipodi:nodetypes="ssssssssssssssssscssss" /><path
       style="fill:#ffffff"
       d="m 1098.5268,1496.1823 c -16.2035,-1.2986 -45.2043,-4.7535 -58.5,-6.969 -50.0497,-8.3399 -98.5512,-29.382 -130,-56.3997 -9.8068,-8.425 -48.4754,-47.2651 -67.7111,-68.0114 -13.5989,-14.6669 -25.411,-30.0995 -44.7757,-58.5 -19.6893,-28.8765 -33.4279,-46.8771 -82.0475,-107.5 -35.9381,-44.8107 -48.2472,-57.9618 -72.9657,-77.957 -38.8175,-31.4002 -70.4541,-48.7675 -101.49998,-55.7195 -11.6416,-2.6069 -37.5318,-3.5722 -49.4884,-1.8451 -31.1822,4.5041 -62.7105,18.9057 -90.5992,41.3839 -15.3565,12.3774 -42.8503,43.168 -54.7055,61.2653 -3.557,5.4298 -9.6192,15.2724 -13.4715,21.8724 -3.8524,6.6 -7.8671,13.064 -8.9217,14.3644 l -1.9173,2.3643 -4.3223,-9.3027 c -11.0252,-23.7296 -18.541,-44.4711 -22.8016,-62.926 -0.8253,-3.575 -2.8073,-11.8047 -4.4043,-18.2883 -1.5971,-6.4836 -4.9444,-21.3336 -7.4385,-33 -2.4941,-11.6664 -5.1562,-23.6867 -5.9157,-26.7117 -0.7595,-3.025 -1.9025,-10.9 -2.5401,-17.5 -0.6375,-6.6 -1.9804,-16.275 -2.9843,-21.5 -2.9295,-15.248 -3.8657,-26.7797 -4.5057,-55.5 -0.7276,-32.656 1.7496,-73.4174 5.9864,-98.5 5.7625,-34.1153 7.5665,-42.6624 14.0366,-66.5 0.7464,-2.75 2.3224,-8.6 3.5021,-13 2.0639,-7.6975 3.4777,-11.9511 11.3489,-34.1452 13.6404,-38.461 46.4458,-89.5161 82.4742,-128.3548 21.0982,-22.7439 50.0724,-47 56.1419,-47 0.8704,0 4.9448,-1.624 9.0542,-3.609 43.9035,-21.2058 82.6407,-21.4407 125.95988,-0.7637 47.4617,22.6542 91.0819,70.0681 140.7257,152.9646 23.6877,39.5543 39.6209,69.5022 82.9479,155.9081 26.0547,51.96 33.6018,66.7928 49.1003,96.5 27.4287,52.5746 57.3478,102.9741 70.5467,118.8378 3.964,4.7642 9.7494,12.0372 12.8565,16.1622 9.9654,13.23 61.2041,66.7696 81.3348,84.9872 32.7693,29.655 48.6984,42.2805 76.1141,60.3286 41.9336,27.6052 68.9608,42.1983 106.3859,57.4421 46.3533,18.8804 67.4178,23.4983 107.5,23.5669 36.4497,0.062 58.4307,-3.6551 89.5515,-15.1453 7.3967,-2.7309 18.1735,-6.409 23.9485,-8.1735 12.6739,-3.8723 36.3218,-13.2724 51.939,-20.6459 6.2915,-2.9704 11.7783,-5.2791 12.193,-5.1304 0.4146,0.1487 -3.0373,5.6703 -7.671,12.2703 -4.6338,6.6 -8.4331,12.4621 -8.443,13.0269 -0.045,2.5663 -17.7196,24.3053 -38.1774,46.9564 -24.6046,27.2427 -63.0152,63.4008 -82.3406,77.5119 -3.3,2.4096 -7.8,6.0394 -10,8.0662 -6.0513,5.575 -30.9362,21.8164 -45.5,29.6961 -18.1959,9.8449 -50.2869,16.9357 -91.5,20.2178 -45.8576,3.6519 -77.5262,4.5859 -98.5,2.9048 z"
       id="path1-38-5"
       sodipodi:nodetypes="ssssssssssssscsssssssssssssscssssssssssssssssssssss" /><path
       style="fill:#ffffff"
       d="m 871.15134,1579.3434 c -93.5697,-7.8285 -185.5032,-35.1398 -266.6758,-79.223 -85.2883,-46.3185 -159.5693,-110.6198 -219.1791,-189.7324 -9.2983,-12.3404 -28.1698,-40.5772 -36.7583,-55 -4.2576,-7.15 -10.1352,-16.8245 -13.0613,-21.4989 -5.2801,-8.435 -5.3091,-8.5253 -3.8615,-12 2.5625,-6.1507 22.9438,-35.9755 33.8525,-49.5377 8.7127,-10.8321 33.9096,-37.4872 41.2407,-43.6276 20.8886,-17.4956 44.1133,-28.5348 71.5573,-34.0125 15.2159,-3.037 48.6068,-3.3091 61.7097,-0.5029 53.1808,11.3896 104.5757,52.7103 170.6248,137.1796 6.0208,7.7 16.8127,21.875 23.982,31.5 12.9337,17.364 18.1714,24.4712 38.3932,52.0965 10.2665,14.0252 22.8433,30.8195 29.9472,39.9897 1.9541,2.5223 4.8956,6.3473 6.5367,8.5 17.8979,23.4758 52.4817,60.2538 70.5161,74.99 34.1576,27.9106 67.8694,46.4352 110,60.4447 25.10066,8.3465 45.05286,12.5695 73.83656,15.6279 19.8887,2.1132 78.4676,2.4775 94.1635,0.5856 5.775,-0.6961 17.3739,-1.7037 25.7753,-2.2391 14.3362,-0.9136 30.3884,-2.7139 45.1019,-5.0582 5.5875,-0.8903 8.3662,-0.7234 7.0395,0.4229 -0.9806,0.8471 -24.0958,13.3312 -31.8979,17.2273 -23.8575,11.9139 -70.4979,27.2607 -104.2669,34.3087 -61.8694,12.9128 -83.4084,16.3248 -123.75436,19.6042 -22.6627,1.8421 -82.5756,1.8165 -104.8218,-0.045 z"
       id="path1-38-68"
       sodipodi:nodetypes="sssssssssssssscssssssssssss" /></g></svg>
